Linefont[max,max].ufo
<glyph name="neg.0" format="2">
	<advance width="200"/>
	<outline>
		<contour>
			<point x="-100" y="125" type="line"/>
			<point x="100" y="125" type="line"/>
			<point x="100" y="-125" type="line"/>
			<point x="-100" y="-125" type="line"/>
		</contour>
	</outline>
</glyph>
<glyph name="neg.-10" format="2">
	<advance width="200"/>
	<outline>
		<contour>
			<point x="-44.098" y="111.803" type="line"/>
			<point x="155.902" y="11.803" type="line"/>
			<point x="44.098" y="-211.803" type="line"/>
			<point x="-155.902" y="-111.803" type="line"/>
		</contour>
	</outline>
</glyph>
<glyph name="neg.-100" format="2">
	<advance width="200"/>
	<outline>
		<contour>
			<point x="22.573" y="24.515" type="line"/>
			<point x="222.573" y="-975.485" type="line"/>
			<point x="-22.573" y="-1024.515" type="line"/>
			<point x="-222.573" y="-24.515" type="line"/>
		</contour>
	</outline>
</glyph>
<glyph name="neg.-101" format="2">
	<advance width="200"/>
	<outline>
		<contour>
			<point x="22.619" y="24.281" type="line"/>
			<point x="222.619" y="-985.719" type="line"/>
			<point x="-22.619" y="-1034.281" type="line"/>
			<point x="-222.619" y="-24.281" type="line"/>
		</contour>
	</outline>
</glyph>
<glyph name="neg.-102" format="2">
	<advance width="200"/>
	<outline>
		<contour>
			<point x="25.608" y="24.629" type="line"/>
			<point x="225.608" y="-995.371" type="line"/>
			<point x="-25.608" y="-1044.629" type="line"/>
			<point x="-225.608" y="-24.629" type="line"/>
		</contour>
	</outline>
</glyph>
<glyph name="neg.-103" format="2">
	<advance width="200"/>
	<outline>
		<contour>
			<point x="25.653" y="24.399" type="line"/>
			<point x="225.653" y="-1005.601" type="line"/>
			<point x="-25.653" y="-1054.399" type="line"/>
			<point x="-225.653" y="-24.399" type="line"/>
		</contour>
	</outline>
</glyph>
<glyph name="neg.-104" format="2">
	<advance width="200"/>
	<outline>
		<contour>
			<point x="22.751" y="23.606" type="line"/>
			<point x="222.751" y="-1016.394" type="line"/>
			<point x="-22.751" y="-1063.606" type="line"/>
			<point x="-222.751" y="-23.606" type="line"/>
		</contour>
	</outline>
</glyph>
<glyph name="neg.-105" format="2">
	<advance width="200"/>
	<outline>
		<contour>
			<point x="22.792" y="23.389" type="line"/>
			<point x="222.792" y="-1026.611" type="line"/>
			<point x="-22.792" y="-1073.389" type="line"/>
			<point x="-222.792" y="-23.389" type="line"/>
		</contour>
	</outline>
</glyph>
<glyph name="neg.-109" format="2">
	<advance width="200"/>
	<outline>
		<contour>
			<point x="25.898" y="23.101" type="line"/>
			<point x="225.898" y="-1066.899" type="line"/>
			<point x="-25.898" y="-1113.101" type="line"/>
			<point x="-225.898" y="-23.101" type="line"/>
		</contour>
	</outline>
</glyph>
<glyph name="neg.-11" format="2">
	<advance width="200"/>
	<outline>
		<contour>
			<point x="-39.76" y="109.527" type="line"/>
			<point x="160.24" y="-0.473" type="line"/>
			<point x="39.76" y="-219.527" type="line"/>
			<point x="-160.24" y="-109.527" type="line"/>
		</contour>
	</outline>
</glyph>
<glyph name="neg.-112" format="2">
	<advance width="200"/>
	<outline>
		<contour>
			<point x="26.007" y="22.501" type="line"/>
			<point x="226.007" y="-1097.499" type="line"/>
			<point x="-26.007" y="-1142.501" type="line"/>
			<point x="-226.007" y="-22.501" type="line"/>
		</contour>
	</outline>
</glyph>
<glyph name="neg.-114" format="2">
	<advance width="200"/>
	<outline>
		<contour>
			<point x="23.12" y="21.6" type="line"/>
			<point x="223.12" y="-1118.4" type="line"/>
			<point x="-23.12" y="-1161.6" type="line"/>
			<point x="-223.12" y="-21.6" type="line"/>
		</contour>
	</outline>
</glyph>
<glyph name="neg.-115" format="2">
	<advance width="200"/>
	<outline>
		<contour>
			<point x="-1.479" y="17.134" type="line"/>
			<point x="198.521" y="-1132.866" type="line"/>
			<point x="1.479" y="-1167.134" type="line"/>
			<point x="-198.521" y="-17.134" type="line"/>
		</contour>
	</outline>
</glyph>
<glyph name="neg.-116" format="2">
	<advance width="200"/>
	<outline>
		<contour>
			<point x="-1.454" y="16.991" type="line"/>
			<point x="198.546" y="-1143.009" type="line"/>
			<point x="1.454" y="-1176.991" type="line"/>
			<point x="-198.546" y="-16.991" type="line"/>
		</contour>
	</outline>
</glyph>
<glyph name="neg.-117" format="2">
	<advance width="200"/>
	<outline>
		<contour>
			<point x="23.213" y="21.062" type="line"/>
			<point x="223.213" y="-1148.938" type="line"/>
			<point x="-23.213" y="-1191.062" type="line"/>
			<point x="-223.213" y="-21.062" type="line"/>
		</contour>
	</outline>
</glyph>
<glyph name="neg.-118" format="2">
	<advance width="200"/>
	<outline>
		<contour>
			<point x="26.2" y="21.39" type="line"/>
			<point x="226.2" y="-1158.61" type="line"/>
			<point x="-26.2" y="-1201.39" type="line"/>
			<point x="-226.2" y="-21.39" type="line"/>
		</contour>
	</outline>
</glyph>
<glyph name="neg.-119" format="2">
	<advance width="200"/>
	<outline>
		<contour>
			<point x="23.271" y="20.718" type="line"/>
			<point x="223.271" y="-1169.282" type="line"/>
			<point x="-23.271" y="-1210.718" type="line"/>
			<point x="-223.271" y="-20.718" type="line"/>
		</contour>
	</outline>
</glyph>
<glyph name="neg.-12" format="2">
	<advance width="200"/>
	<outline>
		<contour>
			<point x="-48.55" y="85.749" type="line"/>
			<point x="151.45" y="-34.251" type="line"/>
			<point x="48.55" y="-205.749" type="line"/>
			<point x="-151.45" y="-85.749" type="line"/>
		</contour>
	</outline>
</glyph>
<glyph name="neg.-120" format="2">
	<advance width="200"/>
	<outline>
		<contour>
			<point x="26.258" y="21.043" type="line"/>
			<point x="226.258" y="-1178.957" type="line"/>
			<point x="-26.258" y="-1221.043" type="line"/>
			<point x="-226.258" y="-21.043" type="line"/>
		</contour>
	</outline>
</glyph>
<glyph name="neg.-121" format="2">
	<advance width="200"/>
	<outline>
		<contour>
			<point x="23.327" y="20.385" type="line"/>
			<point x="223.327" y="-1189.615" type="line"/>
			<point x="-23.327" y="-1230.385" type="line"/>
			<point x="-223.327" y="-20.385" type="line"/>
		</contour>
	</outline>
</glyph>
<glyph name="neg.-123" format="2">
	<advance width="200"/>
	<outline>
		<contour>
			<point x="23.38" y="20.062" type="line"/>
			<point x="223.38" y="-1209.938" type="line"/>
			<point x="-23.38" y="-1250.062" type="line"/>
			<point x="-223.38" y="-20.062" type="line"/>
		</contour>
	</outline>
</glyph>
<glyph name="neg.-124" format="2">
	<advance width="200"/>
	<outline>
		<contour>
			<point x="23.405" y="19.904" type="line"/>
			<point x="223.405" y="-1220.096" type="line"/>
			<point x="-23.405" y="-1259.904" type="line"/>
			<point x="-223.405" y="-19.904" type="line"/>
		</contour>
	</outline>
</glyph>
<glyph name="neg.-125" format="2">
	<advance width="200"/>
	<outline>
		<contour>
			<point x="23.43" y="19.749" type="line"/>
			<point x="223.43" y="-1230.251" type="line"/>
			<point x="-23.43" y="-1269.749" type="line"/>
			<point x="-223.43" y="-19.749" type="line"/>
		</contour>
	</outline>
</glyph>
<glyph name="neg.-126" format="2">
	<advance width="200"/>
	<outline>
		<contour>
			<point x="23.454" y="19.596" type="line"/>
			<point x="223.454" y="-1240.404" type="line"/>
			<point x="-23.454" y="-1279.596" type="line"/>
			<point x="-223.454" y="-19.596" type="line"/>
		</contour>
	</outline>
</glyph>
<glyph name="neg.-127" format="2">
	<advance width="200"/>
	<outline>
		<contour>
			<point x="23.478" y="19.445" type="line"/>
			<point x="223.478" y="-1250.555" type="line"/>
			<point x="-23.478" y="-1289.445" type="line"/>
			<point x="-223.478" y="-19.445" type="line"/>
		</contour>
	</outline>
</glyph>
<glyph name="neg.-13" format="2">
	<advance width="200"/>
	<outline>
		<contour>
			<point x="-30.241" y="107.321" type="line"/>
			<point x="169.759" y="-22.679" type="line"/>
			<point x="30.241" y="-237.321" type="line"/>
			<point x="-169.759" y="-107.321" type="line"/>
		</contour>
	</outline>
</glyph>
<glyph name="neg.-14" format="2">
	<advance width="200"/>
	<outline>
		<contour>
			<point x="-26.597" y="104.862" type="line"/>
			<point x="173.403" y="-35.138" type="line"/>
			<point x="26.597" y="-244.862" type="line"/>
			<point x="-173.403" y="-104.862" type="line"/>
		</contour>
	</outline>
</glyph>
<glyph name="neg.-15" format="2">
	<advance width="200"/>
	<outline>
		<contour>
			<point x="-25" y="100" type="line"/>
			<point x="175" y="-50" type="line"/>
			<point x="25" y="-250" type="line"/>
			<point x="-175" y="-100" type="line"/>
		</contour>
	</outline>
</glyph>
<glyph name="neg.-16" format="2">
	<advance width="200"/>
	<outline>
		<contour>
			<point x="-21.913" y="97.609" type="line"/>
			<point x="178.087" y="-62.391" type="line"/>
			<point x="21.913" y="-257.609" type="line"/>
			<point x="-178.087" y="-97.609" type="line"/>
		</contour>
	</outline>
</glyph>
<glyph name="neg.-18" format="2">
	<advance width="200"/>
	<outline>
		<contour>
			<point x="-16.379" y="92.912" type="line"/>
			<point x="183.621" y="-87.088" type="line"/>
			<point x="16.379" y="-272.912" type="line"/>
			<point x="-183.621" y="-92.912" type="line"/>
		</contour>
	</outline>
</glyph>
<glyph name="neg.-19" format="2">
	<advance width="200"/>
	<outline>
		<contour>
			<point x="-11.84" y="92.8" type="line"/>
			<point x="188.16" y="-97.2" type="line"/>
			<point x="11.84" y="-282.8" type="line"/>
			<point x="-188.16" y="-92.8" type="line"/>
		</contour>
	</outline>
</glyph>
<glyph name="neg.-20" format="2">
	<advance width="200"/>
	<outline>
		<contour>
			<point x="-9.49" y="90.51" type="line"/>
			<point x="190.51" y="-109.49" type="line"/>
			<point x="9.49" y="-290.51" type="line"/>
			<point x="-190.51" y="-90.51" type="line"/>
		</contour>
	</outline>
</glyph>
<glyph name="neg.-21" format="2">
	<advance width="200"/>
	<outline>
		<contour>
			<point x="-7.31" y="88.276" type="line"/>
			<point x="192.69" y="-121.724" type="line"/>
			<point x="7.31" y="-298.276" type="line"/>
			<point x="-192.69" y="-88.276" type="line"/>
		</contour>
	</outline>
</glyph>
<glyph name="neg.-23" format="2">
	<advance width="200"/>
	<outline>
		<contour>
			<point x="-24.539" y="65.618" type="line"/>
			<point x="175.461" y="-164.382" type="line"/>
			<point x="24.539" y="-295.618" type="line"/>
			<point x="-175.461" y="-65.618" type="line"/>
		</contour>
	</outline>
</glyph>
<glyph name="neg.-24" format="2">
	<advance width="200"/>
	<outline>
		<contour>
			<point x="-3.972" y="80.023" type="line"/>
			<point x="196.028" y="-159.977" type="line"/>
			<point x="3.972" y="-320.023" type="line"/>
			<point x="-196.028" y="-80.023" type="line"/>
		</contour>
	</outline>
</glyph>
<glyph name="neg.-25" format="2">
	<advance width="200"/>
	<outline>
		<contour>
			<point x="-0.049" y="79.961" type="line"/>
			<point x="199.951" y="-170.039" type="line"/>
			<point x="0.049" y="-329.961" type="line"/>
			<point x="-199.951" y="-79.961" type="line"/>
		</contour>
	</outline>
</glyph>
<glyph name="neg.-26" format="2">
	<advance width="200"/>
	<outline>
		<contour>
			<point x="1.456" y="78.043" type="line"/>
			<point x="201.456" y="-181.957" type="line"/>
			<point x="-1.456" y="-338.043" type="line"/>
			<point x="-201.456" y="-78.043" type="line"/>
		</contour>
	</outline>
</glyph>
<glyph name="neg.-27" format="2">
	<advance width="200"/>
	<outline>
		<contour>
			<point x="0.445" y="74.403" type="line"/>
			<point x="200.445" y="-195.597" type="line"/>
			<point x="-0.445" y="-344.403" type="line"/>
			<point x="-200.445" y="-74.403" type="line"/>
		</contour>
	</outline>
</glyph>
<glyph name="neg.-29" format="2">
	<advance width="200"/>
	<outline>
		<contour>
			<point x="2.902" y="70.967" type="line"/>
			<point x="202.902" y="-219.033" type="line"/>
			<point x="-2.902" y="-360.967" type="line"/>
			<point x="-202.902" y="-70.967" type="line"/>
		</contour>
	</outline>
</glyph>
<glyph name="neg.-3" format="2">
	<advance width="200"/>
	<outline>
		<contour>
			<point x="-81.457" y="123.617" type="line"/>
			<point x="118.543" y="93.617" type="line"/>
			<point x="81.457" y="-153.617" type="line"/>
			<point x="-118.543" y="-123.617" type="line"/>
		</contour>
	</outline>
</glyph>
<glyph name="neg.-30" format="2">
	<advance width="200"/>
	<outline>
		<contour>
			<point x="6.502" y="71.002" type="line"/>
			<point x="206.502" y="-228.998" type="line"/>
			<point x="-6.502" y="-371.002" type="line"/>
			<point x="-206.502" y="-71.002" type="line"/>
		</contour>
	</outline>
</glyph>
<glyph name="neg.-32" format="2">
	<advance width="200"/>
	<outline>
		<contour>
			<point x="5" y="66.25" type="line"/>
			<point x="205" y="-253.75" type="line"/>
			<point x="-5" y="-386.25" type="line"/>
			<point x="-205" y="-66.25" type="line"/>
		</contour>
	</outline>
</glyph>
<glyph name="neg.-34" format="2">
	<advance width="200"/>
	<outline>
		<contour>
			<point x="10.328" y="64.899" type="line"/>
			<point x="210.328" y="-275.101" type="line"/>
			<point x="-10.328" y="-404.899" type="line"/>
			<point x="-210.328" y="-64.899" type="line"/>
		</contour>
	</outline>
</glyph>
<glyph name="neg.-35" format="2">
	<advance width="200"/>
	<outline>
		<contour>
			<point x="8.53" y="62.017" type="line"/>
			<point x="208.53" y="-287.983" type="line"/>
			<point x="-8.53" y="-412.017" type="line"/>
			<point x="-208.53" y="-62.017" type="line"/>
		</contour>
	</outline>
</glyph>
<glyph name="neg.-37" format="2">
	<advance width="200"/>
	<outline>
		<contour>
			<point x="9.963" y="59.44" type="line"/>
			<point x="209.963" y="-310.56" type="line"/>
			<point x="-9.963" y="-429.44" type="line"/>
			<point x="-209.963" y="-59.44" type="line"/>
		</contour>
	</outline>
</glyph>
<glyph name="neg.-38" format="2">
	<advance width="200"/>
	<outline>
		<contour>
			<point x="13.27" y="59.616" type="line"/>
			<point x="213.27" y="-320.384" type="line"/>
			<point x="-13.27" y="-439.616" type="line"/>
			<point x="-213.27" y="-59.616" type="line"/>
		</contour>
	</outline>
</glyph>
<glyph name="neg.-39" format="2">
	<advance width="200"/>
	<outline>
		<contour>
			<point x="11.227" y="57.04" type="line"/>
			<point x="211.227" y="-332.96" type="line"/>
			<point x="-11.227" y="-447.04" type="line"/>
			<point x="-211.227" y="-57.04" type="line"/>
		</contour>
	</outline>
</glyph>
<glyph name="neg.-40" format="2">
	<advance width="200"/>
	<outline>
		<contour>
			<point x="-10.557" y="44.721" type="line"/>
			<point x="189.443" y="-355.279" type="line"/>
			<point x="10.557" y="-444.721" type="line"/>
			<point x="-189.443" y="-44.721" type="line"/>
		</contour>
	</outline>
</glyph>
<glyph name="neg.-41" format="2">
	<advance width="200"/>
	<outline>
		<contour>
			<point x="15.042" y="56.118" type="line"/>
			<point x="215.042" y="-353.882" type="line"/>
			<point x="-15.042" y="-466.118" type="line"/>
			<point x="-215.042" y="-56.118" type="line"/>
		</contour>
	</outline>
</glyph>
<glyph name="neg.-42" format="2">
	<advance width="200"/>
	<outline>
		<contour>
			<point x="15.566" y="55.031" type="line"/>
			<point x="215.566" y="-364.969" type="line"/>
			<point x="-15.566" y="-475.031" type="line"/>
			<point x="-215.566" y="-55.031" type="line"/>
		</contour>
	</outline>
</glyph>
<glyph name="neg.-44" format="2">
	<advance width="200"/>
	<outline>
		<contour>
			<point x="16.527" y="52.967" type="line"/>
			<point x="216.527" y="-387.033" type="line"/>
			<point x="-16.527" y="-492.967" type="line"/>
			<point x="-216.527" y="-52.967" type="line"/>
		</contour>
	</outline>
</glyph>
<glyph name="neg.-46" format="2">
	<advance width="200"/>
	<outline>
		<contour>
			<point x="14.634" y="49.841" type="line"/>
			<point x="214.634" y="-410.159" type="line"/>
			<point x="-14.634" y="-509.841" type="line"/>
			<point x="-214.634" y="-49.841" type="line"/>
		</contour>
	</outline>
</glyph>
<glyph name="neg.-47" format="2">
	<advance width="200"/>
	<outline>
		<contour>
			<point x="17.78" y="50.119" type="line"/>
			<point x="217.78" y="-419.881" type="line"/>
			<point x="-17.78" y="-520.119" type="line"/>
			<point x="-217.78" y="-50.119" type="line"/>
		</contour>
	</outline>
</glyph>
<glyph name="neg.-48" format="2">
	<advance width="200"/>
	<outline>
		<contour>
			<point x="18.154" y="49.231" type="line"/>
			<point x="218.154" y="-430.769" type="line"/>
			<point x="-18.154" y="-529.231" type="line"/>
			<point x="-218.154" y="-49.231" type="line"/>
		</contour>
	</outline>
</glyph>
<glyph name="neg.-49" format="2">
	<advance width="200"/>
	<outline>
		<contour>
			<point x="18.508" y="48.371" type="line"/>
			<point x="218.508" y="-441.629" type="line"/>
			<point x="-18.508" y="-538.371" type="line"/>
			<point x="-218.508" y="-48.371" type="line"/>
		</contour>
	</outline>
</glyph>
<glyph name="neg.-5" format="2">
	<advance width="200"/>
	<outline>
		<contour>
			<point x="-69.683" y="121.268" type="line"/>
			<point x="130.317" y="71.268" type="line"/>
			<point x="69.683" y="-171.268" type="line"/>
			<point x="-130.317" y="-121.268" type="line"/>
		</contour>
	</outline>
</glyph>
<glyph name="neg.-50" format="2">
	<advance width="200"/>
	<outline>
		<contour>
			<point x="-7.152" y="37.139" type="line"/>
			<point x="192.848" y="-462.861" type="line"/>
			<point x="7.152" y="-537.139" type="line"/>
			<point x="-192.848" y="-37.139" type="line"/>
		</contour>
	</outline>
</glyph>
<glyph name="neg.-51" format="2">
	<advance width="200"/>
	<outline>
		<contour>
			<point x="19.165" y="46.731" type="line"/>
			<point x="219.165" y="-463.269" type="line"/>
			<point x="-19.165" y="-556.731" type="line"/>
			<point x="-219.165" y="-46.731" type="line"/>
		</contour>
	</outline>
</glyph>
<glyph name="neg.-52" format="2">
	<advance width="200"/>
	<outline>
		<contour>
			<point x="16.668" y="44.872" type="line"/>
			<point x="216.668" y="-475.128" type="line"/>
			<point x="-16.668" y="-564.872" type="line"/>
			<point x="-216.668" y="-44.872" type="line"/>
		</contour>
	</outline>
</glyph>
<glyph name="neg.-53" format="2">
	<advance width="200"/>
	<outline>
		<contour>
			<point x="19.757" y="45.191" type="line"/>
			<point x="219.757" y="-484.809" type="line"/>
			<point x="-19.757" y="-575.191" type="line"/>
			<point x="-219.757" y="-45.191" type="line"/>
		</contour>
	</outline>
</glyph>
<glyph name="neg.-54" format="2">
	<advance width="200"/>
	<outline>
		<contour>
			<point x="17.219" y="43.414" type="line"/>
			<point x="217.219" y="-496.586" type="line"/>
			<point x="-17.219" y="-583.414" type="line"/>
			<point x="-217.219" y="-43.414" type="line"/>
		</contour>
	</outline>
</glyph>
<glyph name="neg.-56" format="2">
	<advance width="200"/>
	<outline>
		<contour>
			<point x="20.543" y="43.051" type="line"/>
			<point x="220.543" y="-516.949" type="line"/>
			<point x="-20.543" y="-603.051" type="line"/>
			<point x="-220.543" y="-43.051" type="line"/>
		</contour>
	</outline>
</glyph>
<glyph name="neg.-57" format="2">
	<advance width="200"/>
	<outline>
		<contour>
			<point x="-5.64" y="33.109" type="line"/>
			<point x="194.36" y="-536.891" type="line"/>
			<point x="5.64" y="-603.109" type="line"/>
			<point x="-194.36" y="-33.109" type="line"/>
		</contour>
	</outline>
</glyph>
<glyph name="neg.-58" format="2">
	<advance width="200"/>
	<outline>
		<contour>
			<point x="21.008" y="41.727" type="line"/>
			<point x="221.008" y="-538.273" type="line"/>
			<point x="-21.008" y="-621.727" type="line"/>
			<point x="-221.008" y="-41.727" type="line"/>
		</contour>
	</outline>
</glyph>
<glyph name="neg.-59" format="2">
	<advance width="200"/>
	<outline>
		<contour>
			<point x="21.224" y="41.093" type="line"/>
			<point x="221.224" y="-548.907" type="line"/>
			<point x="-21.224" y="-631.093" type="line"/>
			<point x="-221.224" y="-41.093" type="line"/>
		</contour>
	</outline>
</glyph>
<glyph name="neg.-6" format="2">
	<advance width="200"/>
	<outline>
		<contour>
			<point x="-64.082" y="119.728" type="line"/>
			<point x="135.918" y="59.728" type="line"/>
			<point x="64.082" y="-179.728" type="line"/>
			<point x="-135.918" y="-119.728" type="line"/>
		</contour>
	</outline>
</glyph>
<glyph name="neg.-60" format="2">
	<advance width="200"/>
	<outline>
		<contour>
			<point x="18.585" y="39.528" type="line"/>
			<point x="218.585" y="-560.472" type="line"/>
			<point x="-18.585" y="-639.528" type="line"/>
			<point x="-218.585" y="-39.528" type="line"/>
		</contour>
	</outline>
</glyph>
<glyph name="neg.-61" format="2">
	<advance width="200"/>
	<outline>
		<contour>
			<point x="21.629" y="39.878" type="line"/>
			<point x="221.629" y="-570.122" type="line"/>
			<point x="-21.629" y="-649.878" type="line"/>
			<point x="-221.629" y="-39.878" type="line"/>
		</contour>
	</outline>
</glyph>
<glyph name="neg.-62" format="2">
	<advance width="200"/>
	<outline>
		<contour>
			<point x="18.964" y="38.375" type="line"/>
			<point x="218.964" y="-581.625" type="line"/>
			<point x="-18.964" y="-658.375" type="line"/>
			<point x="-218.964" y="-38.375" type="line"/>
		</contour>
	</outline>
</glyph>
<glyph name="neg.-63" format="2">
	<advance width="200"/>
	<outline>
		<contour>
			<point x="19.141" y="37.822" type="line"/>
			<point x="219.141" y="-592.178" type="line"/>
			<point x="-19.141" y="-667.822" type="line"/>
			<point x="-219.141" y="-37.822" type="line"/>
		</contour>
	</outline>
</glyph>
<glyph name="neg.-64" format="2">
	<advance width="200"/>
	<outline>
		<contour>
			<point x="22.173" y="38.179" type="line"/>
			<point x="222.173" y="-601.821" type="line"/>
			<point x="-22.173" y="-678.179" type="line"/>
			<point x="-222.173" y="-38.179" type="line"/>
		</contour>
	</outline>
</glyph>
<glyph name="neg.-65" format="2">
	<advance width="200"/>
	<outline>
		<contour>
			<point x="19.472" y="36.761" type="line"/>
			<point x="219.472" y="-613.239" type="line"/>
			<point x="-19.472" y="-686.761" type="line"/>
			<point x="-219.472" y="-36.761" type="line"/>
		</contour>
	</outline>
</glyph>
<glyph name="neg.-66" format="2">
	<advance width="200"/>
	<outline>
		<contour>
			<point x="19.628" y="36.251" type="line"/>
			<point x="219.628" y="-623.749" type="line"/>
			<point x="-19.628" y="-696.251" type="line"/>
			<point x="-219.628" y="-36.251" type="line"/>
		</contour>
	</outline>
</glyph>
<glyph name="neg.-67" format="2">
	<advance width="200"/>
	<outline>
		<contour>
			<point x="22.652" y="36.613" type="line"/>
			<point x="222.652" y="-633.387" type="line"/>
			<point x="-22.652" y="-706.613" type="line"/>
			<point x="-222.652" y="-36.613" type="line"/>
		</contour>
	</outline>
</glyph>
<glyph name="neg.-69" format="2">
	<advance width="200"/>
	<outline>
		<contour>
			<point x="22.94" y="35.635" type="line"/>
			<point x="222.94" y="-654.365" type="line"/>
			<point x="-22.94" y="-725.635" type="line"/>
			<point x="-222.94" y="-35.635" type="line"/>
		</contour>
	</outline>
</glyph>
<glyph name="neg.-7" format="2">
	<advance width="200"/>
	<outline>
		<contour>
			<point x="-66.965" y="94.386" type="line"/>
			<point x="133.035" y="24.386" type="line"/>
			<point x="66.965" y="-164.386" type="line"/>
			<point x="-133.035" y="-94.386" type="line"/>
		</contour>
	</outline>
</glyph>
<glyph name="neg.-70" format="2">
	<advance width="200"/>
	<outline>
		<contour>
			<point x="23.075" y="35.164" type="line"/>
			<point x="223.075" y="-664.836" type="line"/>
			<point x="-23.075" y="-735.164" type="line"/>
			<point x="-223.075" y="-35.164" type="line"/>
		</contour>
	</outline>
</glyph>
<glyph name="neg.-71" format="2">
	<advance width="200"/>
	<outline>
		<contour>
			<point x="23.205" y="34.706" type="line"/>
			<point x="223.205" y="-675.294" type="line"/>
			<point x="-23.205" y="-744.706" type="line"/>
			<point x="-223.205" y="-34.706" type="line"/>
		</contour>
	</outline>
</glyph>
<glyph name="neg.-73" format="2">
	<advance width="200"/>
	<outline>
		<contour>
			<point x="23.451" y="33.822" type="line"/>
			<point x="223.451" y="-696.178" type="line"/>
			<point x="-23.451" y="-763.822" type="line"/>
			<point x="-223.451" y="-33.822" type="line"/>
		</contour>
	</outline>
</glyph>
<glyph name="neg.-74" format="2">
	<advance width="200"/>
	<outline>
		<contour>
			<point x="20.67" y="32.614" type="line"/>
			<point x="220.67" y="-707.386" type="line"/>
			<point x="-20.67" y="-772.614" type="line"/>
			<point x="-220.67" y="-32.614" type="line"/>
		</contour>
	</outline>
</glyph>
<glyph name="neg.-75" format="2">
	<advance width="200"/>
	<outline>
		<contour>
			<point x="23.678" y="32.981" type="line"/>
			<point x="223.678" y="-717.019" type="line"/>
			<point x="-23.678" y="-782.981" type="line"/>
			<point x="-223.678" y="-32.981" type="line"/>
		</contour>
	</outline>
</glyph>
<glyph name="neg.-77" format="2">
	<advance width="200"/>
	<outline>
		<contour>
			<point x="23.889" y="32.179" type="line"/>
			<point x="223.889" y="-737.821" type="line"/>
			<point x="-23.889" y="-802.179" type="line"/>
			<point x="-223.889" y="-32.179" type="line"/>
		</contour>
	</outline>
</glyph>
<glyph name="neg.-78" format="2">
	<advance width="200"/>
	<outline>
		<contour>
			<point x="21.083" y="31.047" type="line"/>
			<point x="221.083" y="-748.953" type="line"/>
			<point x="-21.083" y="-811.047" type="line"/>
			<point x="-221.083" y="-31.047" type="line"/>
		</contour>
	</outline>
</glyph>
<glyph name="neg.-8" format="2">
	<advance width="200"/>
	<outline>
		<contour>
			<point x="-53.576" y="116.06" type="line"/>
			<point x="146.424" y="36.06" type="line"/>
			<point x="53.576" y="-196.06" type="line"/>
			<point x="-146.424" y="-116.06" type="line"/>
		</contour>
	</outline>
</glyph>
<glyph name="neg.-80" format="2">
	<advance width="200"/>
	<outline>
		<contour>
			<point x="21.268" y="30.317" type="line"/>
			<point x="221.268" y="-769.683" type="line"/>
			<point x="-21.268" y="-830.317" type="line"/>
			<point x="-221.268" y="-30.317" type="line"/>
		</contour>
	</outline>
</glyph>
<glyph name="neg.-81" format="2">
	<advance width="200"/>
	<outline>
		<contour>
			<point x="21.355" y="29.964" type="line"/>
			<point x="221.355" y="-780.036" type="line"/>
			<point x="-21.355" y="-839.964" type="line"/>
			<point x="-221.355" y="-29.964" type="line"/>
		</contour>
	</outline>
</glyph>
<glyph name="neg.-82" format="2">
	<advance width="200"/>
	<outline>
		<contour>
			<point x="21.44" y="29.62" type="line"/>
			<point x="221.44" y="-790.38" type="line"/>
			<point x="-21.44" y="-849.62" type="line"/>
			<point x="-221.44" y="-29.62" type="line"/>
		</contour>
	</outline>
</glyph>
<glyph name="neg.-83" format="2">
	<advance width="200"/>
	<outline>
		<contour>
			<point x="24.438" y="29.985" type="line"/>
			<point x="224.438" y="-800.015" type="line"/>
			<point x="-24.438" y="-859.985" type="line"/>
			<point x="-224.438" y="-29.985" type="line"/>
		</contour>
	</outline>
</glyph>
<glyph name="neg.-84" format="2">
	<advance width="200"/>
	<outline>
		<contour>
			<point x="21.601" y="28.953" type="line"/>
			<point x="221.601" y="-811.047" type="line"/>
			<point x="-21.601" y="-868.953" type="line"/>
			<point x="-221.601" y="-28.953" type="line"/>
		</contour>
	</outline>
</glyph>
<glyph name="neg.-86" format="2">
	<advance width="200"/>
	<outline>
		<contour>
			<point x="24.673" y="28.994" type="line"/>
			<point x="224.673" y="-831.006" type="line"/>
			<point x="-24.673" y="-888.994" type="line"/>
			<point x="-224.673" y="-28.994" type="line"/>
		</contour>
	</outline>
</glyph>
<glyph name="neg.-87" format="2">
	<advance width="200"/>
	<outline>
		<contour>
			<point x="24.746" y="28.677" type="line"/>
			<point x="224.746" y="-841.323" type="line"/>
			<point x="-24.746" y="-898.677" type="line"/>
			<point x="-224.746" y="-28.677" type="line"/>
		</contour>
	</outline>
</glyph>
<glyph name="neg.-89" format="2">
	<advance width="200"/>
	<outline>
		<contour>
			<point x="21.959" y="27.406" type="line"/>
			<point x="221.959" y="-862.594" type="line"/>
			<point x="-21.959" y="-917.406" type="line"/>
			<point x="-221.959" y="-27.406" type="line"/>
		</contour>
	</outline>
</glyph>
<glyph name="neg.-90" format="2">
	<advance width="200"/>
	<outline>
		<contour>
			<point x="22.023" y="27.116" type="line"/>
			<point x="222.023" y="-872.884" type="line"/>
			<point x="-22.023" y="-927.116" type="line"/>
			<point x="-222.023" y="-27.116" type="line"/>
		</contour>
	</outline>
</glyph>
<glyph name="neg.-91" format="2">
	<advance width="200"/>
	<outline>
		<contour>
			<point x="22.086" y="26.832" type="line"/>
			<point x="222.086" y="-883.168" type="line"/>
			<point x="-22.086" y="-936.832" type="line"/>
			<point x="-222.086" y="-26.832" type="line"/>
		</contour>
	</outline>
</glyph>
<glyph name="neg.-92" format="2">
	<advance width="200"/>
	<outline>
		<contour>
			<point x="25.079" y="27.191" type="line"/>
			<point x="225.079" y="-892.809" type="line"/>
			<point x="-25.079" y="-947.191" type="line"/>
			<point x="-225.079" y="-27.191" type="line"/>
		</contour>
	</outline>
</glyph>
<glyph name="neg.-93" format="2">
	<advance width="200"/>
	<outline>
		<contour>
			<point x="22.206" y="26.281" type="line"/>
			<point x="222.206" y="-903.719" type="line"/>
			<point x="-22.206" y="-956.281" type="line"/>
			<point x="-222.206" y="-26.281" type="line"/>
		</contour>
	</outline>
</glyph>
<glyph name="neg.-94" format="2">
	<advance width="200"/>
	<outline>
		<contour>
			<point x="22.263" y="26.013" type="line"/>
			<point x="222.263" y="-913.987" type="line"/>
			<point x="-22.263" y="-966.013" type="line"/>
			<point x="-222.263" y="-26.013" type="line"/>
		</contour>
	</outline>
</glyph>
<glyph name="neg.-95" format="2">
	<advance width="200"/>
	<outline>
		<contour>
			<point x="25.254" y="26.369" type="line"/>
			<point x="225.254" y="-923.631" type="line"/>
			<point x="-25.254" y="-976.369" type="line"/>
			<point x="-225.254" y="-26.369" type="line"/>
		</contour>
	</outline>
</glyph>
<glyph name="neg.-96" format="2">
	<advance width="200"/>
	<outline>
		<contour>
			<point x="22.373" y="25.494" type="line"/>
			<point x="222.373" y="-934.506" type="line"/>
			<point x="-22.373" y="-985.494" type="line"/>
			<point x="-222.373" y="-25.494" type="line"/>
		</contour>
	</outline>
</glyph>
<glyph name="neg.-97" format="2">
	<advance width="200"/>
	<outline>
		<contour>
			<point x="25.363" y="25.848" type="line"/>
			<point x="225.363" y="-944.152" type="line"/>
			<point x="-25.363" y="-995.848" type="line"/>
			<point x="-225.363" y="-25.848" type="line"/>
		</contour>
	</outline>
</glyph>
<glyph name="neg.-98" format="2">
	<advance width="200"/>
	<outline>
		<contour>
			<point x="25.415" y="25.595" type="line"/>
			<point x="225.415" y="-954.405" type="line"/>
			<point x="-25.415" y="-1005.595" type="line"/>
			<point x="-225.415" y="-25.595" type="line"/>
		</contour>
	</outline>
</glyph>
<glyph name="neg.-99" format="2">
	<advance width="200"/>
	<outline>
		<contour>
			<point x="25.465" y="25.347" type="line"/>
			<point x="225.465" y="-964.653" type="line"/>
			<point x="-25.465" y="-1015.347" type="line"/>
			<point x="-225.465" y="-25.347" type="line"/>
		</contour>
	</outline>
</glyph>
<glyph name="point" format="2">
	<outline>
		<contour>
			<point x="-125" y="-68.75"/>
			<point x="-125" y="0" type="curve" smooth="yes"/>
			<point x="-125" y="68.75"/>
			<point x="-68.75" y="125"/>
			<point x="0" y="125" type="curve" smooth="yes"/>
			<point x="68.75" y="125"/>
			<point x="125" y="68.75"/>
			<point x="125" y="0" type="curve" smooth="yes"/>
			<point x="125" y="-68.75"/>
			<point x="68.75" y="-125"/>
			<point x="0" y="-125" type="curve" smooth="yes"/>
			<point x="-68.75" y="-125"/>
		</contour>
	</outline>
</glyph>
<glyph name="pos.1" format="2">
	<advance width="200"/>
	<outline>
		<contour>
			<point x="-106.242" y="124.844" type="line"/>
			<point x="93.758" y="134.844" type="line"/>
			<point x="106.242" y="-114.844" type="line"/>
			<point x="-93.758" y="-124.844" type="line"/>
		</contour>
	</outline>
</glyph>
<glyph name="pos.10" format="2">
	<advance width="200"/>
	<outline>
		<contour>
			<point x="-157.243" y="114.487" type="line"/>
			<point x="42.757" y="214.487" type="line"/>
			<point x="157.243" y="-14.487" type="line"/>
			<point x="-42.757" y="-114.487" type="line"/>
		</contour>
	</outline>
</glyph>
<glyph name="pos.100" format="2">
	<advance width="200"/>
	<outline>
		<contour>
			<point x="-225.514" y="25.103" type="line"/>
			<point x="-25.514" y="1025.103" type="line"/>
			<point x="225.514" y="974.897" type="line"/>
			<point x="25.514" y="-25.103" type="line"/>
		</contour>
	</outline>
</glyph>
<glyph name="pos.103" format="2">
	<advance width="200"/>
	<outline>
		<contour>
			<point x="-222.708" y="23.827" type="line"/>
			<point x="-22.708" y="1053.827" type="line"/>
			<point x="222.708" y="1006.173" type="line"/>
			<point x="22.708" y="-23.827" type="line"/>
		</contour>
	</outline>
</glyph>
<glyph name="pos.104" format="2">
	<advance width="200"/>
	<outline>
		<contour>
			<point x="-225.697" y="24.172" type="line"/>
			<point x="-25.697" y="1064.172" type="line"/>
			<point x="225.697" y="1015.828" type="line"/>
			<point x="25.697" y="-24.172" type="line"/>
		</contour>
	</outline>
</glyph>
<glyph name="pos.105" format="2">
	<advance width="200"/>
	<outline>
		<contour>
			<point x="-225.739" y="23.95" type="line"/>
			<point x="-25.739" y="1073.95" type="line"/>
			<point x="225.739" y="1026.05" type="line"/>
			<point x="25.739" y="-23.95" type="line"/>
		</contour>
	</outline>
</glyph>
<glyph name="pos.106" format="2">
	<advance width="200"/>
	<outline>
		<contour>
			<point x="-225.781" y="23.732" type="line"/>
			<point x="-25.781" y="1083.732" type="line"/>
			<point x="225.781" y="1036.268" type="line"/>
			<point x="25.781" y="-23.732" type="line"/>
		</contour>
	</outline>
</glyph>
<glyph name="pos.107" format="2">
	<advance width="200"/>
	<outline>
		<contour>
			<point x="-225.821" y="23.518" type="line"/>
			<point x="-25.821" y="1093.518" type="line"/>
			<point x="225.821" y="1046.482" type="line"/>
			<point x="25.821" y="-23.518" type="line"/>
		</contour>
	</outline>
</glyph>
<glyph name="pos.108" format="2">
	<advance width="200"/>
	<outline>
		<contour>
			<point x="-222.91" y="22.761" type="line"/>
			<point x="-22.91" y="1102.761" type="line"/>
			<point x="222.91" y="1057.239" type="line"/>
			<point x="22.91" y="-22.761" type="line"/>
		</contour>
	</outline>
</glyph>
<glyph name="pos.11" format="2">
	<advance width="200"/>
	<outline>
		<contour>
			<point x="-148.192" y="87.622" type="line"/>
			<point x="51.808" y="197.622" type="line"/>
			<point x="148.192" y="22.378" type="line"/>
			<point x="-51.808" y="-87.622" type="line"/>
		</contour>
	</outline>
</glyph>
<glyph name="pos.110" format="2">
	<advance width="200"/>
	<outline>
		<contour>
			<point x="-198.387" y="17.889" type="line"/>
			<point x="1.613" y="1117.889" type="line"/>
			<point x="198.387" y="1082.111" type="line"/>
			<point x="-1.613" y="-17.889" type="line"/>
		</contour>
	</outline>
</glyph>
<glyph name="pos.111" format="2">
	<advance width="200"/>
	<outline>
		<contour>
			<point x="-223.019" y="22.166" type="line"/>
			<point x="-23.019" y="1132.166" type="line"/>
			<point x="223.019" y="1087.834" type="line"/>
			<point x="23.019" y="-22.166" type="line"/>
		</contour>
	</outline>
</glyph>
<glyph name="pos.112" format="2">
	<advance width="200"/>
	<outline>
		<contour>
			<point x="-223.053" y="21.974" type="line"/>
			<point x="-23.053" y="1141.974" type="line"/>
			<point x="223.053" y="1098.026" type="line"/>
			<point x="23.053" y="-21.974" type="line"/>
		</contour>
	</outline>
</glyph>
<glyph name="pos.113" format="2">
	<advance width="200"/>
	<outline>
		<contour>
			<point x="-223.087" y="21.785" type="line"/>
			<point x="-23.087" y="1151.785" type="line"/>
			<point x="223.087" y="1108.215" type="line"/>
			<point x="23.087" y="-21.785" type="line"/>
		</contour>
	</outline>
</glyph>
<glyph name="pos.114" format="2">
	<advance width="200"/>
	<outline>
		<contour>
			<point x="-226.074" y="22.118" type="line"/>
			<point x="-26.074" y="1162.118" type="line"/>
			<point x="226.074" y="1117.882" type="line"/>
			<point x="26.074" y="-22.118" type="line"/>
		</contour>
	</outline>
</glyph>
<glyph name="pos.115" format="2">
	<advance width="200"/>
	<outline>
		<contour>
			<point x="-223.151" y="21.418" type="line"/>
			<point x="-23.151" y="1171.418" type="line"/>
			<point x="223.151" y="1128.582" type="line"/>
			<point x="23.151" y="-21.418" type="line"/>
		</contour>
	</outline>
</glyph>
<glyph name="pos.116" format="2">
	<advance width="200"/>
	<outline>
		<contour>
			<point x="-223.183" y="21.238" type="line"/>
			<point x="-23.183" y="1181.238" type="line"/>
			<point x="223.183" y="1138.762" type="line"/>
			<point x="23.183" y="-21.238" type="line"/>
		</contour>
	</outline>
</glyph>
<glyph name="pos.117" format="2">
	<advance width="200"/>
	<outline>
		<contour>
			<point x="-226.17" y="21.568" type="line"/>
			<point x="-26.17" y="1191.568" type="line"/>
			<point x="226.17" y="1148.432" type="line"/>
			<point x="26.17" y="-21.568" type="line"/>
		</contour>
	</outline>
</glyph>
<glyph name="pos.119" format="2">
	<advance width="200"/>
	<outline>
		<contour>
			<point x="-198.617" y="16.574" type="line"/>
			<point x="1.383" y="1206.574" type="line"/>
			<point x="198.617" y="1173.426" type="line"/>
			<point x="-1.383" y="-16.574" type="line"/>
		</contour>
	</outline>
</glyph>
<glyph name="pos.12" format="2">
	<advance width="200"/>
	<outline>
		<contour>
			<point x="-164.312" y="107.187" type="line"/>
			<point x="35.688" y="227.187" type="line"/>
			<point x="164.312" y="12.813" type="line"/>
			<point x="-35.688" y="-107.187" type="line"/>
		</contour>
	</outline>
</glyph>
<glyph name="pos.121" format="2">
	<advance width="200"/>
	<outline>
		<contour>
			<point x="-226.287" y="20.874" type="line"/>
			<point x="-26.287" y="1230.874" type="line"/>
			<point x="226.287" y="1189.126" type="line"/>
			<point x="26.287" y="-20.874" type="line"/>
		</contour>
	</outline>
</glyph>
<glyph name="pos.122" format="2">
	<advance width="200"/>
	<outline>
		<contour>
			<point x="-223.353" y="20.222" type="line"/>
			<point x="-23.353" y="1240.222" type="line"/>
			<point x="223.353" y="1199.778" type="line"/>
			<point x="23.353" y="-20.222" type="line"/>
		</contour>
	</outline>
</glyph>
<glyph name="pos.125" format="2">
	<advance width="200"/>
	<outline>
		<contour>
			<point x="-226.392" y="20.223" type="line"/>
			<point x="-26.392" y="1270.223" type="line"/>
			<point x="226.392" y="1229.777" type="line"/>
			<point x="26.392" y="-20.223" type="line"/>
		</contour>
	</outline>
</glyph>
<glyph name="pos.126" format="2">
	<advance width="200"/>
	<outline>
		<contour>
			<point x="-198.764" y="15.677" type="line"/>
			<point x="1.236" y="1275.677" type="line"/>
			<point x="198.764" y="1244.323" type="line"/>
			<point x="-1.236" y="-15.677" type="line"/>
		</contour>
	</outline>
</glyph>
<glyph name="pos.127" format="2">
	<advance width="200"/>
	<outline>
		<contour>
			<point x="-226.442" y="19.912" type="line"/>
			<point x="-26.442" y="1289.912" type="line"/>
			<point x="226.442" y="1250.088" type="line"/>
			<point x="26.442" y="-19.912" type="line"/>
		</contour>
	</outline>
</glyph>
<glyph name="pos.14" format="2">
	<advance width="200"/>
	<outline>
		<contour>
			<point x="-171.683" y="102.404" type="line"/>
			<point x="28.317" y="242.404" type="line"/>
			<point x="171.683" y="37.596" type="line"/>
			<point x="-28.317" y="-102.404" type="line"/>
		</contour>
	</outline>
</glyph>
<glyph name="pos.15" format="2">
	<advance width="200"/>
	<outline>
		<contour>
			<point x="-176.8" y="102.4" type="line"/>
			<point x="23.2" y="252.4" type="line"/>
			<point x="176.8" y="47.6" type="line"/>
			<point x="-23.2" y="-102.4" type="line"/>
		</contour>
	</outline>
</glyph>
<glyph name="pos.16" format="2">
	<advance width="200"/>
	<outline>
		<contour>
			<point x="-179.961" y="99.951" type="line"/>
			<point x="20.039" y="259.951" type="line"/>
			<point x="179.961" y="60.049" type="line"/>
			<point x="-20.039" y="-99.951" type="line"/>
		</contour>
	</outline>
</glyph>
<glyph name="pos.17" format="2">
	<advance width="200"/>
	<outline>
		<contour>
			<point x="-164.765" y="76.194" type="line"/>
			<point x="35.235" y="246.194" type="line"/>
			<point x="164.765" y="93.806" type="line"/>
			<point x="-35.235" y="-76.194" type="line"/>
		</contour>
	</outline>
</glyph>
<glyph name="pos.2" format="2">
	<advance width="200"/>
	<outline>
		<contour>
			<point x="-112.736" y="127.365" type="line"/>
			<point x="87.264" y="147.365" type="line"/>
			<point x="112.736" y="-107.365" type="line"/>
			<point x="-87.264" y="-127.365" type="line"/>
		</contour>
	</outline>
</glyph>
<glyph name="pos.21" format="2">
	<advance width="200"/>
	<outline>
		<contour>
			<point x="-172.414" y="68.966" type="line"/>
			<point x="27.586" y="278.966" type="line"/>
			<point x="172.414" y="141.034" type="line"/>
			<point x="-27.586" y="-68.966" type="line"/>
		</contour>
	</outline>
</glyph>
<glyph name="pos.22" format="2">
	<advance width="200"/>
	<outline>
		<contour>
			<point x="-194.712" y="86.102" type="line"/>
			<point x="5.288" y="306.102" type="line"/>
			<point x="194.712" y="133.898" type="line"/>
			<point x="-5.288" y="-86.102" type="line"/>
		</contour>
	</outline>
</glyph>
<glyph name="pos.23" format="2">
	<advance width="200"/>
	<outline>
		<contour>
			<point x="-196.59" y="83.991" type="line"/>
			<point x="3.41" y="313.991" type="line"/>
			<point x="196.59" y="146.009" type="line"/>
			<point x="-3.41" y="-83.991" type="line"/>
		</contour>
	</outline>
</glyph>
<glyph name="pos.24" format="2">
	<advance width="200"/>
	<outline>
		<contour>
			<point x="-198.332" y="81.944" type="line"/>
			<point x="1.668" y="321.944" type="line"/>
			<point x="198.332" y="158.056" type="line"/>
			<point x="-1.668" y="-81.944" type="line"/>
		</contour>
	</outline>
</glyph>
<glyph name="pos.25" format="2">
	<advance width="200"/>
	<outline>
		<contour>
			<point x="-197.609" y="78.087" type="line"/>
			<point x="2.391" y="328.087" type="line"/>
			<point x="197.609" y="171.913" type="line"/>
			<point x="-2.391" y="-78.087" type="line"/>
		</contour>
	</outline>
</glyph>
<glyph name="pos.26" format="2">
	<advance width="200"/>
	<outline>
		<contour>
			<point x="-199.078" y="76.214" type="line"/>
			<point x="0.922" y="336.214" type="line"/>
			<point x="199.078" y="183.786" type="line"/>
			<point x="-0.922" y="-76.214" type="line"/>
		</contour>
	</outline>
</glyph>
<glyph name="pos.28" format="2">
	<advance width="200"/>
	<outline>
		<contour>
			<point x="-204.158" y="74.398" type="line"/>
			<point x="-4.158" y="354.398" type="line"/>
			<point x="204.158" y="205.602" type="line"/>
			<point x="4.158" y="-74.398" type="line"/>
		</contour>
	</outline>
</glyph>
<glyph name="pos.29" format="2">
	<advance width="200"/>
	<outline>
		<contour>
			<point x="-205.371" y="72.67" type="line"/>
			<point x="-5.371" y="362.67" type="line"/>
			<point x="205.371" y="217.33" type="line"/>
			<point x="5.371" y="-72.67" type="line"/>
		</contour>
	</outline>
</glyph>
<glyph name="pos.3" format="2">
	<advance width="200"/>
	<outline>
		<contour>
			<point x="-118.988" y="126.584" type="line"/>
			<point x="81.012" y="156.584" type="line"/>
			<point x="118.988" y="-96.584" type="line"/>
			<point x="-81.012" y="-126.584" type="line"/>
		</contour>
	</outline>
</glyph>
<glyph name="pos.31" format="2">
	<advance width="200"/>
	<outline>
		<contour>
			<point x="-205.037" y="67.766" type="line"/>
			<point x="-5.037" y="377.766" type="line"/>
			<point x="205.037" y="242.234" type="line"/>
			<point x="5.037" y="-67.766" type="line"/>
		</contour>
	</outline>
</glyph>
<glyph name="pos.32" format="2">
	<advance width="200"/>
	<outline>
		<contour>
			<point x="-184.8" y="52" type="line"/>
			<point x="15.2" y="372" type="line"/>
			<point x="184.8" y="267" type="line"/>
			<point x="-15.2" y="-52" type="line"/>
		</contour>
	</outline>
</glyph>
<glyph name="pos.33" format="2">
	<advance width="200"/>
	<outline>
		<contour>
			<point x="-209.465" y="66.343" type="line"/>
			<point x="-9.465" y="396.343" type="line"/>
			<point x="209.465" y="263.657" type="line"/>
			<point x="9.465" y="-66.343" type="line"/>
		</contour>
	</outline>
</glyph>
<glyph name="pos.35" format="2">
	<advance width="200"/>
	<outline>
		<contour>
			<point x="-211.135" y="63.506" type="line"/>
			<point x="-11.135" y="413.506" type="line"/>
			<point x="211.135" y="286.494" type="line"/>
			<point x="11.135" y="-63.506" type="line"/>
		</contour>
	</outline>
</glyph>
<glyph name="pos.36" format="2">
	<advance width="200"/>
	<outline>
		<contour>
			<point x="-211.892" y="62.162" type="line"/>
			<point x="-11.892" y="422.162" type="line"/>
			<point x="211.892" y="297.838" type="line"/>
			<point x="11.892" y="-62.162" type="line"/>
		</contour>
	</outline>
</glyph>
<glyph name="pos.37" format="2">
	<advance width="200"/>
	<outline>
		<contour>
			<point x="-212.602" y="60.866" type="line"/>
			<point x="-12.602" y="430.866" type="line"/>
			<point x="212.602" y="309.134" type="line"/>
			<point x="12.602" y="-60.866" type="line"/>
		</contour>
	</outline>
</glyph>
<glyph name="pos.38" format="2">
	<advance width="200"/>
	<outline>
		<contour>
			<point x="-210.615" y="58.218" type="line"/>
			<point x="-10.615" y="438.218" type="line"/>
			<point x="210.615" y="321.782" type="line"/>
			<point x="10.615" y="-58.218" type="line"/>
		</contour>
	</outline>
</glyph>
<glyph name="pos.39" format="2">
	<advance width="200"/>
	<outline>
		<contour>
			<point x="-188.982" y="45.632" type="line"/>
			<point x="11.018" y="435.632" type="line"/>
			<point x="188.982" y="344.368" type="line"/>
			<point x="-11.018" y="-45.632" type="line"/>
		</contour>
	</outline>
</glyph>
<glyph name="pos.4" format="2">
	<advance width="200"/>
	<outline>
		<contour>
			<point x="-125.103" y="125.514" type="line"/>
			<point x="74.897" y="165.514" type="line"/>
			<point x="125.103" y="-85.514" type="line"/>
			<point x="-74.897" y="-125.514" type="line"/>
		</contour>
	</outline>
</glyph>
<glyph name="pos.40" format="2">
	<advance width="200"/>
	<outline>
		<contour>
			<point x="-211.803" y="55.902" type="line"/>
			<point x="-11.803" y="455.902" type="line"/>
			<point x="211.803" y="344.098" type="line"/>
			<point x="11.803" y="-55.902" type="line"/>
		</contour>
	</outline>
</glyph>
<glyph name="pos.42" format="2">
	<advance width="200"/>
	<outline>
		<contour>
			<point x="-190.286" y="42.993" type="line"/>
			<point x="9.714" y="462.993" type="line"/>
			<point x="190.286" y="377.007" type="line"/>
			<point x="-9.714" y="-42.993" type="line"/>
		</contour>
	</outline>
</glyph>
<glyph name="pos.43" format="2">
	<advance width="200"/>
	<outline>
		<contour>
			<point x="-213.34" y="52.716" type="line"/>
			<point x="-13.34" y="482.716" type="line"/>
			<point x="213.34" y="377.284" type="line"/>
			<point x="13.34" y="-52.716" type="line"/>
		</contour>
	</outline>
</glyph>
<glyph name="pos.44" format="2">
	<advance width="200"/>
	<outline>
		<contour>
			<point x="-216.527" y="52.967" type="line"/>
			<point x="-16.527" y="492.967" type="line"/>
			<point x="216.527" y="387.033" type="line"/>
			<point x="16.527" y="-52.967" type="line"/>
		</contour>
	</outline>
</glyph>
<glyph name="pos.45" format="2">
	<advance width="200"/>
	<outline>
		<contour>
			<point x="-191.381" y="40.614" type="line"/>
			<point x="8.619" y="490.614" type="line"/>
			<point x="191.381" y="409.386" type="line"/>
			<point x="-8.619" y="-40.614" type="line"/>
		</contour>
	</outline>
</glyph>
<glyph name="pos.46" format="2">
	<advance width="200"/>
	<outline>
		<contour>
			<point x="-217.385" y="51.037" type="line"/>
			<point x="-17.385" y="511.037" type="line"/>
			<point x="217.385" y="408.963" type="line"/>
			<point x="17.385" y="-51.037" type="line"/>
		</contour>
	</outline>
</glyph>
<glyph name="pos.47" format="2">
	<advance width="200"/>
	<outline>
		<contour>
			<point x="-215.019" y="48.944" type="line"/>
			<point x="-15.019" y="518.944" type="line"/>
			<point x="215.019" y="421.056" type="line"/>
			<point x="15.019" y="-48.944" type="line"/>
		</contour>
	</outline>
</glyph>
<glyph name="pos.48" format="2">
	<advance width="200"/>
	<outline>
		<contour>
			<point x="-215.385" y="48.077" type="line"/>
			<point x="-15.385" y="528.077" type="line"/>
			<point x="215.385" y="431.923" type="line"/>
			<point x="15.385" y="-48.077" type="line"/>
		</contour>
	</outline>
</glyph>
<glyph name="pos.49" format="2">
	<advance width="200"/>
	<outline>
		<contour>
			<point x="-215.731" y="47.237" type="line"/>
			<point x="-15.731" y="537.237" type="line"/>
			<point x="215.731" y="442.763" type="line"/>
			<point x="15.731" y="-47.237" type="line"/>
		</contour>
	</outline>
</glyph>
<glyph name="pos.5" format="2">
	<advance width="200"/>
	<outline>
		<contour>
			<point x="-131.045" y="124.178" type="line"/>
			<point x="68.955" y="174.178" type="line"/>
			<point x="131.045" y="-74.178" type="line"/>
			<point x="-68.955" y="-124.178" type="line"/>
		</contour>
	</outline>
</glyph>
<glyph name="pos.50" format="2">
	<advance width="200"/>
	<outline>
		<contour>
			<point x="-218.845" y="47.538" type="line"/>
			<point x="-18.845" y="547.538" type="line"/>
			<point x="218.845" y="452.462" type="line"/>
			<point x="18.845" y="-47.538" type="line"/>
		</contour>
	</outline>
</glyph>
<glyph name="pos.51" format="2">
	<advance width="200"/>
	<outline>
		<contour>
			<point x="-216.372" y="45.636" type="line"/>
			<point x="-16.372" y="555.636" type="line"/>
			<point x="216.372" y="464.364" type="line"/>
			<point x="16.372" y="-45.636" type="line"/>
		</contour>
	</outline>
</glyph>
<glyph name="pos.52" format="2">
	<advance width="200"/>
	<outline>
		<contour>
			<point x="-219.468" y="45.949" type="line"/>
			<point x="-19.468" y="565.949" type="line"/>
			<point x="219.468" y="474.051" type="line"/>
			<point x="19.468" y="-45.949" type="line"/>
		</contour>
	</outline>
</glyph>
<glyph name="pos.53" format="2">
	<advance width="200"/>
	<outline>
		<contour>
			<point x="-216.95" y="44.132" type="line"/>
			<point x="-16.95" y="574.132" type="line"/>
			<point x="216.95" y="485.868" type="line"/>
			<point x="16.95" y="-44.132" type="line"/>
		</contour>
	</outline>
</glyph>
<glyph name="pos.54" format="2">
	<advance width="200"/>
	<outline>
		<contour>
			<point x="-220.032" y="44.456" type="line"/>
			<point x="-20.032" y="584.456" type="line"/>
			<point x="220.032" y="495.544" type="line"/>
			<point x="20.032" y="-44.456" type="line"/>
		</contour>
	</outline>
</glyph>
<glyph name="pos.55" format="2">
	<advance width="200"/>
	<outline>
		<contour>
			<point x="-217.474" y="42.718" type="line"/>
			<point x="-17.474" y="592.718" type="line"/>
			<point x="217.474" y="507.282" type="line"/>
			<point x="17.474" y="-42.718" type="line"/>
		</contour>
	</outline>
</glyph>
<glyph name="pos.56" format="2">
	<advance width="200"/>
	<outline>
		<contour>
			<point x="-217.718" y="42.042" type="line"/>
			<point x="-17.718" y="602.042" type="line"/>
			<point x="217.718" y="517.958" type="line"/>
			<point x="17.718" y="-42.042" type="line"/>
		</contour>
	</outline>
</glyph>
<glyph name="pos.57" format="2">
	<advance width="200"/>
	<outline>
		<contour>
			<point x="-220.781" y="42.379" type="line"/>
			<point x="-20.781" y="612.379" type="line"/>
			<point x="220.781" y="527.621" type="line"/>
			<point x="20.781" y="-42.379" type="line"/>
		</contour>
	</outline>
</glyph>
<glyph name="pos.58" format="2">
	<advance width="200"/>
	<outline>
		<contour>
			<point x="-218.172" y="40.749" type="line"/>
			<point x="-18.172" y="620.749" type="line"/>
			<point x="218.172" y="539.251" type="line"/>
			<point x="18.172" y="-40.749" type="line"/>
		</contour>
	</outline>
</glyph>
<glyph name="pos.59" format="2">
	<advance width="200"/>
	<outline>
		<contour>
			<point x="-194.707" y="32.104" type="line"/>
			<point x="5.293" y="622.104" type="line"/>
			<point x="194.707" y="557.896" type="line"/>
			<point x="-5.293" y="-32.104" type="line"/>
		</contour>
	</outline>
</glyph>
<glyph name="pos.6" format="2">
	<advance width="200"/>
	<outline>
		<contour>
			<point x="-136.781" y="122.602" type="line"/>
			<point x="63.219" y="182.602" type="line"/>
			<point x="136.781" y="-62.602" type="line"/>
			<point x="-63.219" y="-122.602" type="line"/>
		</contour>
	</outline>
</glyph>
<glyph name="pos.60" format="2">
	<advance width="200"/>
	<outline>
		<contour>
			<point x="-221.431" y="40.477" type="line"/>
			<point x="-21.431" y="640.477" type="line"/>
			<point x="221.431" y="559.523" type="line"/>
			<point x="21.431" y="-40.477" type="line"/>
		</contour>
	</outline>
</glyph>
<glyph name="pos.61" format="2">
	<advance width="200"/>
	<outline>
		<contour>
			<point x="-218.779" y="38.944" type="line"/>
			<point x="-18.779" y="648.944" type="line"/>
			<point x="218.779" y="571.056" type="line"/>
			<point x="18.779" y="-38.944" type="line"/>
		</contour>
	</outline>
</glyph>
<glyph name="pos.62" format="2">
	<advance width="200"/>
	<outline>
		<contour>
			<point x="-221.819" y="39.296" type="line"/>
			<point x="-21.819" y="659.296" type="line"/>
			<point x="221.819" y="580.704" type="line"/>
			<point x="21.819" y="-39.296" type="line"/>
		</contour>
	</outline>
</glyph>
<glyph name="pos.63" format="2">
	<advance width="200"/>
	<outline>
		<contour>
			<point x="-221" y="38.73" type="line"/>
			<point x="-21" y="668.73" type="line"/>
			<point x="221" y="591.27" type="line"/>
			<point x="21" y="-38.73" type="line"/>
		</contour>
	</outline>
</glyph>
<glyph name="pos.66" format="2">
	<advance width="200"/>
	<outline>
		<contour>
			<point x="-222.499" y="37.121" type="line"/>
			<point x="-22.499" y="697.121" type="line"/>
			<point x="222.499" y="622.879" type="line"/>
			<point x="22.499" y="-37.121" type="line"/>
		</contour>
	</outline>
</glyph>
<glyph name="pos.67" format="2">
	<advance width="200"/>
	<outline>
		<contour>
			<point x="-219.777" y="35.754" type="line"/>
			<point x="-19.777" y="705.754" type="line"/>
			<point x="219.777" y="634.246" type="line"/>
			<point x="19.777" y="-35.754" type="line"/>
		</contour>
	</outline>
</glyph>
<glyph name="pos.68" format="2">
	<advance width="200"/>
	<outline>
		<contour>
			<point x="-222.799" y="36.117" type="line"/>
			<point x="-22.799" y="716.117" type="line"/>
			<point x="222.799" y="643.883" type="line"/>
			<point x="22.799" y="-36.117" type="line"/>
		</contour>
	</outline>
</glyph>
<glyph name="pos.69" format="2">
	<advance width="200"/>
	<outline>
		<contour>
			<point x="-196.047" y="27.84" type="line"/>
			<point x="3.953" y="717.84" type="line"/>
			<point x="196.047" y="662.16" type="line"/>
			<point x="-3.953" y="-27.84" type="line"/>
		</contour>
	</outline>
</glyph>
<glyph name="pos.7" format="2">
	<advance width="200"/>
	<outline>
		<contour>
			<point x="-141.294" y="117.982" type="line"/>
			<point x="58.706" y="187.982" type="line"/>
			<point x="141.294" y="-47.982" type="line"/>
			<point x="-58.706" y="-117.982" type="line"/>
		</contour>
	</outline>
</glyph>
<glyph name="pos.70" format="2">
	<advance width="200"/>
	<outline>
		<contour>
			<point x="-220.19" y="34.34" type="line"/>
			<point x="-20.19" y="734.34" type="line"/>
			<point x="220.19" y="665.66" type="line"/>
			<point x="20.19" y="-34.34" type="line"/>
		</contour>
	</outline>
</glyph>
<glyph name="pos.72" format="2">
	<advance width="200"/>
	<outline>
		<contour>
			<point x="-220.44" y="33.455" type="line"/>
			<point x="-20.44" y="753.455" type="line"/>
			<point x="220.44" y="686.545" type="line"/>
			<point x="20.44" y="-33.455" type="line"/>
		</contour>
	</outline>
</glyph>
<glyph name="pos.73" format="2">
	<advance width="200"/>
	<outline>
		<contour>
			<point x="-220.557" y="33.029" type="line"/>
			<point x="-20.557" y="763.029" type="line"/>
			<point x="220.557" y="696.971" type="line"/>
			<point x="20.557" y="-33.029" type="line"/>
		</contour>
	</outline>
</glyph>
<glyph name="pos.76" format="2">
	<advance width="200"/>
	<outline>
		<contour>
			<point x="-223.786" y="32.575" type="line"/>
			<point x="-23.786" y="792.575" type="line"/>
			<point x="223.786" y="727.425" type="line"/>
			<point x="23.786" y="-32.575" type="line"/>
		</contour>
	</outline>
</glyph>
<glyph name="pos.77" format="2">
	<advance width="200"/>
	<outline>
		<contour>
			<point x="-220.985" y="31.425" type="line"/>
			<point x="-20.985" y="801.425" type="line"/>
			<point x="220.985" y="738.575" type="line"/>
			<point x="20.985" y="-31.425" type="line"/>
		</contour>
	</outline>
</glyph>
<glyph name="pos.78" format="2">
	<advance width="200"/>
	<outline>
		<contour>
			<point x="-223.989" y="31.792" type="line"/>
			<point x="-23.989" y="811.792" type="line"/>
			<point x="223.989" y="748.208" type="line"/>
			<point x="23.989" y="-31.792" type="line"/>
		</contour>
	</outline>
</glyph>
<glyph name="pos.79" format="2">
	<advance width="200"/>
	<outline>
		<contour>
			<point x="-221.177" y="30.678" type="line"/>
			<point x="-21.177" y="820.678" type="line"/>
			<point x="221.177" y="759.322" type="line"/>
			<point x="21.177" y="-30.678" type="line"/>
		</contour>
	</outline>
</glyph>
<glyph name="pos.80" format="2">
	<advance width="200"/>
	<outline>
		<contour>
			<point x="-197.014" y="24.254" type="line"/>
			<point x="2.986" y="824.254" type="line"/>
			<point x="197.014" y="775.746" type="line"/>
			<point x="-2.986" y="-24.254" type="line"/>
		</contour>
	</outline>
</glyph>
<glyph name="pos.81" format="2">
	<advance width="200"/>
	<outline>
		<contour>
			<point x="-224.268" y="30.683" type="line"/>
			<point x="-24.268" y="840.683" type="line"/>
			<point x="224.268" y="779.317" type="line"/>
			<point x="24.268" y="-30.683" type="line"/>
		</contour>
	</outline>
</glyph>
<glyph name="pos.82" format="2">
	<advance width="200"/>
	<outline>
		<contour>
			<point x="-224.355" y="30.33" type="line"/>
			<point x="-24.355" y="850.33" type="line"/>
			<point x="224.355" y="789.67" type="line"/>
			<point x="24.355" y="-30.33" type="line"/>
		</contour>
	</outline>
</glyph>
<glyph name="pos.83" format="2">
	<advance width="200"/>
	<outline>
		<contour>
			<point x="-221.522" y="29.282" type="line"/>
			<point x="-21.522" y="859.282" type="line"/>
			<point x="221.522" y="800.718" type="line"/>
			<point x="21.522" y="-29.282" type="line"/>
		</contour>
	</outline>
</glyph>
<glyph name="pos.84" format="2">
	<advance width="200"/>
	<outline>
		<contour>
			<point x="-224.519" y="29.647" type="line"/>
			<point x="-24.519" y="869.647" type="line"/>
			<point x="224.519" y="810.353" type="line"/>
			<point x="24.519" y="-29.647" type="line"/>
		</contour>
	</outline>
</glyph>
<glyph name="pos.85" format="2">
	<advance width="200"/>
	<outline>
		<contour>
			<point x="-221.677" y="28.63" type="line"/>
			<point x="-21.677" y="878.63" type="line"/>
			<point x="221.677" y="821.37" type="line"/>
			<point x="21.677" y="-28.63" type="line"/>
		</contour>
	</outline>
</glyph>
<glyph name="pos.87" format="2">
	<advance width="200"/>
	<outline>
		<contour>
			<point x="-221.822" y="28.005" type="line"/>
			<point x="-21.822" y="898.005" type="line"/>
			<point x="221.822" y="841.995" type="line"/>
			<point x="21.822" y="-28.005" type="line"/>
		</contour>
	</outline>
</glyph>
<glyph name="pos.88" format="2">
	<advance width="200"/>
	<outline>
		<contour>
			<point x="-197.513" y="22.162" type="line"/>
			<point x="2.487" y="902.162" type="line"/>
			<point x="197.513" y="857.838" type="line"/>
			<point x="-2.487" y="-22.162" type="line"/>
		</contour>
	</outline>
</glyph>
<glyph name="pos.89" format="2">
	<advance width="200"/>
	<outline>
		<contour>
			<point x="-224.886" y="28.064" type="line"/>
			<point x="-24.886" y="918.064" type="line"/>
			<point x="224.886" y="861.936" type="line"/>
			<point x="24.886" y="-28.064" type="line"/>
		</contour>
	</outline>
</glyph>
<glyph name="pos.9" format="2">
	<advance width="200"/>
	<outline>
		<contour>
			<point x="-151.296" y="113.99" type="line"/>
			<point x="48.704" y="203.99" type="line"/>
			<point x="151.296" y="-23.99" type="line"/>
			<point x="-48.704" y="-113.99" type="line"/>
		</contour>
	</outline>
</glyph>
<glyph name="pos.90" format="2">
	<advance width="200"/>
	<outline>
		<contour>
			<point x="-224.952" y="27.767" type="line"/>
			<point x="-24.952" y="927.767" type="line"/>
			<point x="224.952" y="872.233" type="line"/>
			<point x="24.952" y="-27.767" type="line"/>
		</contour>
	</outline>
</glyph>
<glyph name="pos.91" format="2">
	<advance width="200"/>
	<outline>
		<contour>
			<point x="-225.016" y="27.476" type="line"/>
			<point x="-25.016" y="937.476" type="line"/>
			<point x="225.016" y="882.524" type="line"/>
			<point x="25.016" y="-27.476" type="line"/>
		</contour>
	</outline>
</glyph>
<glyph name="pos.94" format="2">
	<advance width="200"/>
	<outline>
		<contour>
			<point x="-225.198" y="26.638" type="line"/>
			<point x="-25.198" y="966.638" type="line"/>
			<point x="225.198" y="913.362" type="line"/>
			<point x="25.198" y="-26.638" type="line"/>
		</contour>
	</outline>
</glyph>
<glyph name="pos.95" format="2">
	<advance width="200"/>
	<outline>
		<contour>
			<point x="-197.855" y="20.601" type="line"/>
			<point x="2.145" y="970.601" type="line"/>
			<point x="197.855" y="929.399" type="line"/>
			<point x="-2.145" y="-20.601" type="line"/>
		</contour>
	</outline>
</glyph>
<glyph name="pos.96" format="2">
	<advance width="200"/>
	<outline>
		<contour>
			<point x="-197.898" y="20.395" type="line"/>
			<point x="2.102" y="980.395" type="line"/>
			<point x="197.898" y="939.605" type="line"/>
			<point x="-2.102" y="-20.395" type="line"/>
		</contour>
	</outline>
</glyph>
<glyph name="pos.97" format="2">
	<advance width="200"/>
	<outline>
		<contour>
			<point x="-222.425" y="25.242" type="line"/>
			<point x="-22.425" y="995.242" type="line"/>
			<point x="222.425" y="944.758" type="line"/>
			<point x="22.425" y="-25.242" type="line"/>
		</contour>
	</outline>
</glyph>
<glyph name="pos.99" format="2">
	<advance width="200"/>
	<outline>
		<contour>
			<point x="-222.525" y="24.752" type="line"/>
			<point x="-22.525" y="1014.752" type="line"/>
			<point x="222.525" y="965.248" type="line"/>
			<point x="22.525" y="-24.752" type="line"/>
		</contour>
	</outline>
</glyph>
<glyph name="to-1" format="2">
	<advance width="500"/>
	<outline>
		<contour>
			<point x="-246" y="200" type="line"/>
			<point x="254" y="190" type="line"/>
			<point x="246" y="-210" type="line"/>
			<point x="-254" y="-200" type="line"/>
		</contour>
	</outline>
</glyph>
<glyph name="to-10" format="2">
	<advance width="200"/>
	<outline>
		<contour>
			<point x="-10.557" y="178.885" type="line"/>
			<point x="189.443" y="78.885" type="line"/>
			<point x="10.557" y="-278.885" type="line"/>
			<point x="-189.443" y="-178.885" type="line"/>
		</contour>
	</outline>
</glyph>
<glyph name="to-100" format="2">
	<advance width="100"/>
	<outline>
		<contour>
			<point x="19.653" y="6.965" type="line"/>
			<point x="119.653" y="-993.035" type="line"/>
			<point x="-19.653" y="-1006.965" type="line"/>
			<point x="-119.653" y="-6.965" type="line"/>
		</contour>
	</outline>
</glyph>
<glyph name="to-101" format="2">
	<advance width="200"/>
	<outline>
		<contour>
			<point x="98.152" y="39.238" type="line"/>
			<point x="298.152" y="-970.762" type="line"/>
			<point x="-98.152" y="-1049.238" type="line"/>
			<point x="-298.152" y="-39.238" type="line"/>
		</contour>
	</outline>
</glyph>
<glyph name="to-102" format="2">
	<advance width="100"/>
	<outline>
		<contour>
			<point x="-0.239" y="4.879" type="line"/>
			<point x="99.761" y="-1015.121" type="line"/>
			<point x="0.239" y="-1024.879" type="line"/>
			<point x="-99.761" y="-4.879" type="line"/>
		</contour>
	</outline>
</glyph>
<glyph name="to-103" format="2">
	<advance width="200"/>
	<outline>
		<contour>
			<point x="96.333" y="38.123" type="line"/>
			<point x="296.333" y="-991.877" type="line"/>
			<point x="-96.333" y="-1068.123" type="line"/>
			<point x="-296.333" y="-38.123" type="line"/>
		</contour>
	</outline>
</glyph>
<glyph name="to-104" format="2">
	<advance width="100"/>
	<outline>
		<contour>
			<point x="-0.23" y="4.786" type="line"/>
			<point x="99.77" y="-1035.214" type="line"/>
			<point x="0.23" y="-1044.786" type="line"/>
			<point x="-99.77" y="-4.786" type="line"/>
		</contour>
	</outline>
</glyph>
<glyph name="to-105" format="2">
	<advance width="200"/>
	<outline>
		<contour>
			<point x="98.432" y="37.797" type="line"/>
			<point x="298.432" y="-1012.203" type="line"/>
			<point x="-98.432" y="-1087.797" type="line"/>
			<point x="-298.432" y="-37.797" type="line"/>
		</contour>
	</outline>
</glyph>
<glyph name="to-106" format="2">
	<advance width="100"/>
	<outline>
		<contour>
			<point x="19.691" y="6.575" type="line"/>
			<point x="119.691" y="-1053.425" type="line"/>
			<point x="-19.691" y="-1066.575" type="line"/>
			<point x="-119.691" y="-6.575" type="line"/>
		</contour>
	</outline>
</glyph>
<glyph name="to-107" format="2">
	<advance width="100"/>
	<outline>
		<contour>
			<point x="19.696" y="6.514" type="line"/>
			<point x="119.696" y="-1063.486" type="line"/>
			<point x="-19.696" y="-1076.514" type="line"/>
			<point x="-119.696" y="-6.514" type="line"/>
		</contour>
	</outline>
</glyph>
<glyph name="to-108" format="2">
	<advance width="100"/>
	<outline>
		<contour>
			<point x="19.702" y="6.454" type="line"/>
			<point x="119.702" y="-1073.546" type="line"/>
			<point x="-19.702" y="-1086.454" type="line"/>
			<point x="-119.702" y="-6.454" type="line"/>
		</contour>
	</outline>
</glyph>
<glyph name="to-109" format="2">
	<advance width="200"/>
	<outline>
		<contour>
			<point x="96.716" y="36.095" type="line"/>
			<point x="296.716" y="-1053.905" type="line"/>
			<point x="-96.716" y="-1126.095" type="line"/>
			<point x="-296.716" y="-36.095" type="line"/>
		</contour>
	</outline>
</glyph>
<glyph name="to-11" format="2">
	<advance width="200"/>
	<outline>
		<contour>
			<point x="-3.616" y="175.243" type="line"/>
			<point x="196.384" y="65.243" type="line"/>
			<point x="3.616" y="-285.243" type="line"/>
			<point x="-196.384" y="-175.243" type="line"/>
		</contour>
	</outline>
</glyph>
<glyph name="to-110" format="2">
	<advance width="200"/>
	<outline>
		<contour>
			<point x="98.742" y="36.135" type="line"/>
			<point x="298.742" y="-1063.865" type="line"/>
			<point x="-98.742" y="-1136.135" type="line"/>
			<point x="-298.742" y="-36.135" type="line"/>
		</contour>
	</outline>
</glyph>
<glyph name="to-111" format="2">
	<advance width="100"/>
	<outline>
		<contour>
			<point x="-0.202" y="4.486" type="line"/>
			<point x="99.798" y="-1105.514" type="line"/>
			<point x="0.202" y="-1114.486" type="line"/>
			<point x="-99.798" y="-4.486" type="line"/>
		</contour>
	</outline>
</glyph>
<glyph name="to-112" format="2">
	<advance width="500"/>
	<outline>
		<contour>
			<point x="-67" y="82" type="line"/>
			<point x="433" y="-1038" type="line"/>
			<point x="67" y="-1202" type="line"/>
			<point x="-433" y="-82" type="line"/>
		</contour>
	</outline>
</glyph>
<glyph name="to-113" format="2">
	<advance width="100"/>
	<outline>
		<contour>
			<point x="19.727" y="6.171" type="line"/>
			<point x="119.727" y="-1123.829" type="line"/>
			<point x="-19.727" y="-1136.171" type="line"/>
			<point x="-119.727" y="-6.171" type="line"/>
		</contour>
	</outline>
</glyph>
<glyph name="to-114" format="2">
	<advance width="100"/>
	<outline>
		<contour>
			<point x="19.732" y="6.117" type="line"/>
			<point x="119.732" y="-1133.883" type="line"/>
			<point x="-19.732" y="-1146.117" type="line"/>
			<point x="-119.732" y="-6.117" type="line"/>
		</contour>
	</outline>
</glyph>
<glyph name="to-115" format="2">
	<advance width="200"/>
	<outline>
		<contour>
			<point x="97.042" y="34.268" type="line"/>
			<point x="297.042" y="-1115.732" type="line"/>
			<point x="-97.042" y="-1184.268" type="line"/>
			<point x="-297.042" y="-34.268" type="line"/>
		</contour>
	</outline>
</glyph>
<glyph name="to-116" format="2">
	<advance width="200"/>
	<outline>
		<contour>
			<point x="99.063" y="34.321" type="line"/>
			<point x="299.063" y="-1125.679" type="line"/>
			<point x="-99.063" y="-1194.321" type="line"/>
			<point x="-299.063" y="-34.321" type="line"/>
		</contour>
	</outline>
</glyph>
<glyph name="to-117" format="2">
	<advance width="200"/>
	<outline>
		<contour>
			<point x="97.14" y="33.699" type="line"/>
			<point x="297.14" y="-1136.301" type="line"/>
			<point x="-97.14" y="-1203.699" type="line"/>
			<point x="-297.14" y="-33.699" type="line"/>
		</contour>
	</outline>
</glyph>
<glyph name="to-118" format="2">
	<advance width="500"/>
	<outline>
		<contour>
			<point x="-66" y="78" type="line"/>
			<point x="434" y="-1102" type="line"/>
			<point x="66" y="-1258" type="line"/>
			<point x="-434" y="-78" type="line"/>
		</contour>
	</outline>
</glyph>
<glyph name="to-119" format="2">
	<advance width="200"/>
	<outline>
		<contour>
			<point x="99.206" y="33.48" type="line"/>
			<point x="299.206" y="-1156.52" type="line"/>
			<point x="-99.206" y="-1223.48" type="line"/>
			<point x="-299.206" y="-33.48" type="line"/>
		</contour>
	</outline>
</glyph>
<glyph name="to-12" format="2">
	<advance width="100"/>
	<outline>
		<contour>
			<point x="3.775" y="44.813" type="line"/>
			<point x="103.775" y="-75.187" type="line"/>
			<point x="-3.775" y="-164.813" type="line"/>
			<point x="-103.775" y="-44.813" type="line"/>
		</contour>
	</outline>
</glyph>
<glyph name="to-120" format="2">
	<advance width="100"/>
	<outline>
		<contour>
			<point x="-0.173" y="4.152" type="line"/>
			<point x="99.827" y="-1195.848" type="line"/>
			<point x="0.173" y="-1204.152" type="line"/>
			<point x="-99.827" y="-4.152" type="line"/>
		</contour>
	</outline>
</glyph>
<glyph name="to-121" format="2">
	<advance width="500"/>
	<outline>
		<contour>
			<point x="-65" y="76" type="line"/>
			<point x="435" y="-1134" type="line"/>
			<point x="65" y="-1286" type="line"/>
			<point x="-435" y="-76" type="line"/>
		</contour>
	</outline>
</glyph>
<glyph name="to-122" format="2">
	<advance width="100"/>
	<outline>
		<contour>
			<point x="19.766" y="5.719" type="line"/>
			<point x="119.766" y="-1214.281" type="line"/>
			<point x="-19.766" y="-1225.719" type="line"/>
			<point x="-119.766" y="-5.719" type="line"/>
		</contour>
	</outline>
</glyph>
<glyph name="to-123" format="2">
	<advance width="200"/>
	<outline>
		<contour>
			<point x="97.407" y="32.099" type="line"/>
			<point x="297.407" y="-1197.901" type="line"/>
			<point x="-97.407" y="-1262.099" type="line"/>
			<point x="-297.407" y="-32.099" type="line"/>
		</contour>
	</outline>
</glyph>
<glyph name="to-124" format="2">
	<advance width="500"/>
	<outline>
		<contour>
			<point x="-65" y="75" type="line"/>
			<point x="435" y="-1165" type="line"/>
			<point x="65" y="-1315" type="line"/>
			<point x="-435" y="-75" type="line"/>
		</contour>
	</outline>
</glyph>
<glyph name="to-125" format="2">
	<advance width="500"/>
	<outline>
		<contour>
			<point x="-64" y="74" type="line"/>
			<point x="436" y="-1176" type="line"/>
			<point x="64" y="-1324" type="line"/>
			<point x="-436" y="-74" type="line"/>
		</contour>
	</outline>
</glyph>
<glyph name="to-126" format="2">
	<advance width="500"/>
	<outline>
		<contour>
			<point x="-64" y="74" type="line"/>
			<point x="436" y="-1186" type="line"/>
			<point x="64" y="-1334" type="line"/>
			<point x="-436" y="-74" type="line"/>
		</contour>
	</outline>
</glyph>
<glyph name="to-127" format="2">
	<advance width="100"/>
	<outline>
		<contour>
			<point x="-0.154" y="3.925" type="line"/>
			<point x="99.846" y="-1266.075" type="line"/>
			<point x="0.154" y="-1273.925" type="line"/>
			<point x="-99.846" y="-3.925" type="line"/>
		</contour>
	</outline>
</glyph>
<glyph name="to-13" format="2">
	<advance width="200"/>
	<outline>
		<contour>
			<point x="10.088" y="169.366" type="line"/>
			<point x="210.088" y="39.366" type="line"/>
			<point x="-10.088" y="-299.366" type="line"/>
			<point x="-210.088" y="-169.366" type="line"/>
		</contour>
	</outline>
</glyph>
<glyph name="to-14" format="2">
	<advance width="100"/>
	<outline>
		<contour>
			<point x="6.961" y="40.687" type="line"/>
			<point x="106.961" y="-99.313" type="line"/>
			<point x="-6.961" y="-180.687" type="line"/>
			<point x="-106.961" y="-40.687" type="line"/>
		</contour>
	</outline>
</glyph>
<glyph name="to-16" format="2">
	<advance width="100"/>
	<outline>
		<contour>
			<point x="-7.6" y="26.5" type="line"/>
			<point x="92.4" y="-133.5" type="line"/>
			<point x="7.6" y="-186.5" type="line"/>
			<point x="-92.4" y="-26.5" type="line"/>
		</contour>
	</outline>
</glyph>
<glyph name="to-17" format="2">
	<advance width="500"/>
	<outline>
		<contour>
			<point x="-186" y="189" type="line"/>
			<point x="314" y="19" type="line"/>
			<point x="186" y="-359" type="line"/>
			<point x="-314" y="-189" type="line"/>
		</contour>
	</outline>
</glyph>
<glyph name="to-18" format="2">
	<advance width="100"/>
	<outline>
		<contour>
			<point x="11.191" y="33.995" type="line"/>
			<point x="111.191" y="-146.005" type="line"/>
			<point x="-11.191" y="-213.995" type="line"/>
			<point x="-111.191" y="-33.995" type="line"/>
		</contour>
	</outline>
</glyph>
<glyph name="to-19" format="2">
	<advance width="100"/>
	<outline>
		<contour>
			<point x="11.944" y="32.602" type="line"/>
			<point x="111.944" y="-157.398" type="line"/>
			<point x="-11.944" y="-222.602" type="line"/>
			<point x="-111.944" y="-32.602" type="line"/>
		</contour>
	</outline>
</glyph>
<glyph name="to-2" format="2">
	<advance width="500"/>
	<outline>
		<contour>
			<point x="-242" y="200" type="line"/>
			<point x="258" y="180" type="line"/>
			<point x="242" y="-220" type="line"/>
			<point x="-258" y="-200" type="line"/>
		</contour>
	</outline>
</glyph>
<glyph name="to-20" format="2">
	<advance width="100"/>
	<outline>
		<contour>
			<point x="12.61" y="31.305" type="line"/>
			<point x="112.61" y="-168.695" type="line"/>
			<point x="-12.61" y="-231.305" type="line"/>
			<point x="-112.61" y="-31.305" type="line"/>
		</contour>
	</outline>
</glyph>
<glyph name="to-21" format="2">
	<advance width="200"/>
	<outline>
		<contour>
			<point x="44.828" y="137.931" type="line"/>
			<point x="244.828" y="-72.069" type="line"/>
			<point x="-44.828" y="-347.931" type="line"/>
			<point x="-244.828" y="-137.931" type="line"/>
		</contour>
	</outline>
</glyph>
<glyph name="to-22" format="2">
	<advance width="100"/>
	<outline>
		<contour>
			<point x="13.726" y="28.966" type="line"/>
			<point x="113.726" y="-191.034" type="line"/>
			<point x="-13.726" y="-248.966" type="line"/>
			<point x="-113.726" y="-28.966" type="line"/>
		</contour>
	</outline>
</glyph>
<glyph name="to-23" format="2">
	<advance width="200"/>
	<outline>
		<contour>
			<point x="52.43" y="132.548" type="line"/>
			<point x="252.43" y="-97.452" type="line"/>
			<point x="-52.43" y="-362.548" type="line"/>
			<point x="-252.43" y="-132.548" type="line"/>
		</contour>
	</outline>
</glyph>
<glyph name="to-24" format="2">
	<advance width="200"/>
	<outline>
		<contour>
			<point x="53.644" y="128.037" type="line"/>
			<point x="253.644" y="-111.963" type="line"/>
			<point x="-53.644" y="-368.037" type="line"/>
			<point x="-253.644" y="-128.037" type="line"/>
		</contour>
	</outline>
</glyph>
<glyph name="to-25" format="2">
	<advance width="100"/>
	<outline>
		<contour>
			<point x="14.993" y="25.997" type="line"/>
			<point x="114.993" y="-224.003" type="line"/>
			<point x="-14.993" y="-275.997" type="line"/>
			<point x="-114.993" y="-25.997" type="line"/>
		</contour>
	</outline>
</glyph>
<glyph name="to-26" format="2">
	<advance width="200"/>
	<outline>
		<contour>
			<point x="58.525" y="121.942" type="line"/>
			<point x="258.525" y="-138.058" type="line"/>
			<point x="-58.525" y="-381.942" type="line"/>
			<point x="-258.525" y="-121.942" type="line"/>
		</contour>
	</outline>
</glyph>
<glyph name="to-27" format="2">
	<advance width="200"/>
	<outline>
		<contour>
			<point x="-19.644" y="59.523" type="line"/>
			<point x="180.356" y="-210.477" type="line"/>
			<point x="19.644" y="-329.523" type="line"/>
			<point x="-180.356" y="-59.523" type="line"/>
		</contour>
	</outline>
</glyph>
<glyph name="to-28" format="2">
	<advance width="200"/>
	<outline>
		<contour>
			<point x="64.374" y="117.41" type="line"/>
			<point x="264.374" y="-162.59" type="line"/>
			<point x="-64.374" y="-397.41" type="line"/>
			<point x="-264.374" y="-117.41" type="line"/>
		</contour>
	</outline>
</glyph>
<glyph name="to-29" format="2">
	<advance width="100"/>
	<outline>
		<contour>
			<point x="-2.731" y="16.3" type="line"/>
			<point x="97.269" y="-273.7" type="line"/>
			<point x="2.731" y="-306.3" type="line"/>
			<point x="-97.269" y="-16.3" type="line"/>
		</contour>
	</outline>
</glyph>
<glyph name="to-3" format="2">
	<advance width="100"/>
	<outline>
		<contour>
			<point x="-35.633" y="47.891" type="line"/>
			<point x="64.367" y="17.891" type="line"/>
			<point x="35.633" y="-77.891" type="line"/>
			<point x="-64.367" y="-47.891" type="line"/>
		</contour>
	</outline>
</glyph>
<glyph name="to-30" format="2">
	<advance width="500"/>
	<outline>
		<contour>
			<point x="-147" y="171" type="line"/>
			<point x="353" y="-129" type="line"/>
			<point x="147" y="-471" type="line"/>
			<point x="-353" y="-171" type="line"/>
		</contour>
	</outline>
</glyph>
<glyph name="to-31" format="2">
	<advance width="500"/>
	<outline>
		<contour>
			<point x="-145" y="170" type="line"/>
			<point x="355" y="-140" type="line"/>
			<point x="145" y="-480" type="line"/>
			<point x="-355" y="-170" type="line"/>
		</contour>
	</outline>
</glyph>
<glyph name="to-32" format="2">
	<advance width="200"/>
	<outline>
		<contour>
			<point x="71.296" y="107.06" type="line"/>
			<point x="271.296" y="-212.94" type="line"/>
			<point x="-71.296" y="-427.06" type="line"/>
			<point x="-271.296" y="-107.06" type="line"/>
		</contour>
	</outline>
</glyph>
<glyph name="to-33" format="2">
	<advance width="100"/>
	<outline>
		<contour>
			<point x="-2.149" y="14.5" type="line"/>
			<point x="97.851" y="-315.5" type="line"/>
			<point x="2.149" y="-344.5" type="line"/>
			<point x="-97.851" y="-14.5" type="line"/>
		</contour>
	</outline>
</glyph>
<glyph name="to-34" format="2">
	<advance width="100"/>
	<outline>
		<contour>
			<point x="-2.032" y="14.108" type="line"/>
			<point x="97.968" y="-325.892" type="line"/>
			<point x="2.032" y="-354.108" type="line"/>
			<point x="-97.968" y="-14.108" type="line"/>
		</contour>
	</outline>
</glyph>
<glyph name="to-35" format="2">
	<advance width="200"/>
	<outline>
		<contour>
			<point x="73.649" y="99.228" type="line"/>
			<point x="273.649" y="-250.772" type="line"/>
			<point x="-73.649" y="-449.228" type="line"/>
			<point x="-273.649" y="-99.228" type="line"/>
		</contour>
	</outline>
</glyph>
<glyph name="to-36" format="2">
	<advance width="200"/>
	<outline>
		<contour>
			<point x="74.831" y="97.129" type="line"/>
			<point x="274.831" y="-262.871" type="line"/>
			<point x="-74.831" y="-457.129" type="line"/>
			<point x="-274.831" y="-97.129" type="line"/>
		</contour>
	</outline>
</glyph>
<glyph name="to-37" format="2">
	<advance width="200"/>
	<outline>
		<contour>
			<point x="75.941" y="95.103" type="line"/>
			<point x="275.941" y="-274.897" type="line"/>
			<point x="-75.941" y="-465.103" type="line"/>
			<point x="-275.941" y="-95.103" type="line"/>
		</contour>
	</outline>
</glyph>
<glyph name="to-38" format="2">
	<advance width="200"/>
	<outline>
		<contour>
			<point x="76.984" y="93.149" type="line"/>
			<point x="276.984" y="-286.851" type="line"/>
			<point x="-76.984" y="-473.149" type="line"/>
			<point x="-276.984" y="-93.149" type="line"/>
		</contour>
	</outline>
</glyph>
<glyph name="to-39" format="2">
	<advance width="100"/>
	<outline>
		<contour>
			<point x="-1.567" y="12.419" type="line"/>
			<point x="98.433" y="-377.581" type="line"/>
			<point x="1.567" y="-402.419" type="line"/>
			<point x="-98.433" y="-12.419" type="line"/>
		</contour>
	</outline>
</glyph>
<glyph name="to-4" format="2">
	<advance width="500"/>
	<outline>
		<contour>
			<point x="-234" y="199" type="line"/>
			<point x="266" y="159" type="line"/>
			<point x="234" y="-239" type="line"/>
			<point x="-266" y="-199" type="line"/>
		</contour>
	</outline>
</glyph>
<glyph name="to-40" format="2">
	<advance width="500"/>
	<outline>
		<contour>
			<point x="-125" y="156" type="line"/>
			<point x="375" y="-244" type="line"/>
			<point x="125" y="-556" type="line"/>
			<point x="-375" y="-156" type="line"/>
		</contour>
	</outline>
</glyph>
<glyph name="to-41" format="2">
	<advance width="200"/>
	<outline>
		<contour>
			<point x="-10.123" y="43.842" type="line"/>
			<point x="189.877" y="-366.158" type="line"/>
			<point x="10.123" y="-453.842" type="line"/>
			<point x="-189.877" y="-43.842" type="line"/>
		</contour>
	</outline>
</glyph>
<glyph name="to-42" format="2">
	<advance width="200"/>
	<outline>
		<contour>
			<point x="80.572" y="85.987" type="line"/>
			<point x="280.572" y="-334.013" type="line"/>
			<point x="-80.572" y="-505.987" type="line"/>
			<point x="-280.572" y="-85.987" type="line"/>
		</contour>
	</outline>
</glyph>
<glyph name="to-43" format="2">
	<advance width="500"/>
	<outline>
		<contour>
			<point x="-120" y="152" type="line"/>
			<point x="380" y="-278" type="line"/>
			<point x="120" y="-582" type="line"/>
			<point x="-380" y="-152" type="line"/>
		</contour>
	</outline>
</glyph>
<glyph name="to-44" format="2">
	<advance width="100"/>
	<outline>
		<contour>
			<point x="-1.243" y="11.081" type="line"/>
			<point x="98.757" y="-428.919" type="line"/>
			<point x="1.243" y="-451.081" type="line"/>
			<point x="-98.757" y="-11.081" type="line"/>
		</contour>
	</outline>
</glyph>
<glyph name="to-45" format="2">
	<advance width="500"/>
	<outline>
		<contour>
			<point x="-116" y="149" type="line"/>
			<point x="384" y="-301" type="line"/>
			<point x="116" y="-599" type="line"/>
			<point x="-384" y="-149" type="line"/>
		</contour>
	</outline>
</glyph>
<glyph name="to-46" format="2">
	<advance width="200"/>
	<outline>
		<contour>
			<point x="83.414" y="79.745" type="line"/>
			<point x="283.414" y="-380.255" type="line"/>
			<point x="-83.414" y="-539.745" type="line"/>
			<point x="-283.414" y="-79.745" type="line"/>
		</contour>
	</outline>
</glyph>
<glyph name="to-47" format="2">
	<advance width="200"/>
	<outline>
		<contour>
			<point x="84.031" y="78.311" type="line"/>
			<point x="284.031" y="-391.689" type="line"/>
			<point x="-84.031" y="-548.311" type="line"/>
			<point x="-284.031" y="-78.311" type="line"/>
		</contour>
	</outline>
</glyph>
<glyph name="to-48" format="2">
	<advance width="200"/>
	<outline>
		<contour>
			<point x="84.615" y="76.923" type="line"/>
			<point x="284.615" y="-403.077" type="line"/>
			<point x="-84.615" y="-556.923" type="line"/>
			<point x="-284.615" y="-76.923" type="line"/>
		</contour>
	</outline>
</glyph>
<glyph name="to-49" format="2">
	<advance width="500"/>
	<outline>
		<contour>
			<point x="-110" y="143" type="line"/>
			<point x="390" y="-347" type="line"/>
			<point x="110" y="-633" type="line"/>
			<point x="-390" y="-143" type="line"/>
		</contour>
	</outline>
</glyph>
<glyph name="to-5" format="2">
	<advance width="200"/>
	<outline>
		<contour>
			<point x="-51.008" y="195.969" type="line"/>
			<point x="148.992" y="145.969" type="line"/>
			<point x="51.008" y="-245.969" type="line"/>
			<point x="-148.992" y="-195.969" type="line"/>
		</contour>
	</outline>
</glyph>
<glyph name="to-50" format="2">
	<advance width="200"/>
	<outline>
		<contour>
			<point x="85.695" y="74.278" type="line"/>
			<point x="285.695" y="-425.722" type="line"/>
			<point x="-85.695" y="-574.278" type="line"/>
			<point x="-285.695" y="-74.278" type="line"/>
		</contour>
	</outline>
</glyph>
<glyph name="to-51" format="2">
	<advance width="500"/>
	<outline>
		<contour>
			<point x="-107" y="140" type="line"/>
			<point x="393" y="-370" type="line"/>
			<point x="107" y="-650" type="line"/>
			<point x="-393" y="-140" type="line"/>
		</contour>
	</outline>
</glyph>
<glyph name="to-52" format="2">
	<advance width="100"/>
	<outline>
		<contour>
			<point x="-0.9" y="9.442" type="line"/>
			<point x="99.1" y="-510.558" type="line"/>
			<point x="0.9" y="-529.442" type="line"/>
			<point x="-99.1" y="-9.442" type="line"/>
		</contour>
	</outline>
</glyph>
<glyph name="to-53" format="2">
	<advance width="100"/>
	<outline>
		<contour>
			<point x="18.786" y="12.979" type="line"/>
			<point x="118.786" y="-517.021" type="line"/>
			<point x="-18.786" y="-542.979" type="line"/>
			<point x="-118.786" y="-12.979" type="line"/>
		</contour>
	</outline>
</glyph>
<glyph name="to-54" format="2">
	<advance width="500"/>
	<outline>
		<contour>
			<point x="-103" y="136" type="line"/>
			<point x="397" y="-404" type="line"/>
			<point x="103" y="-676" type="line"/>
			<point x="-397" y="-136" type="line"/>
		</contour>
	</outline>
</glyph>
<glyph name="to-55" format="2">
	<advance width="100"/>
	<outline>
		<contour>
			<point x="18.871" y="12.522" type="line"/>
			<point x="118.871" y="-537.478" type="line"/>
			<point x="-18.871" y="-562.522" type="line"/>
			<point x="-118.871" y="-12.522" type="line"/>
		</contour>
	</outline>
</glyph>
<glyph name="to-56" format="2">
	<advance width="100"/>
	<outline>
		<contour>
			<point x="18.91" y="12.305" type="line"/>
			<point x="118.91" y="-547.695" type="line"/>
			<point x="-18.91" y="-572.305" type="line"/>
			<point x="-118.91" y="-12.305" type="line"/>
		</contour>
	</outline>
</glyph>
<glyph name="to-57" format="2">
	<advance width="200"/>
	<outline>
		<contour>
			<point x="88.72" y="66.218" type="line"/>
			<point x="288.72" y="-503.782" type="line"/>
			<point x="-88.72" y="-636.218" type="line"/>
			<point x="-288.72" y="-66.218" type="line"/>
		</contour>
	</outline>
</glyph>
<glyph name="to-58" format="2">
	<advance width="100"/>
	<outline>
		<contour>
			<point x="18.982" y="11.893" type="line"/>
			<point x="118.982" y="-568.107" type="line"/>
			<point x="-18.982" y="-591.893" type="line"/>
			<point x="-118.982" y="-11.893" type="line"/>
		</contour>
	</outline>
</glyph>
<glyph name="to-59" format="2">
	<advance width="200"/>
	<outline>
		<contour>
			<point x="91.307" y="64.85" type="line"/>
			<point x="291.307" y="-525.15" type="line"/>
			<point x="-91.307" y="-654.85" type="line"/>
			<point x="-291.307" y="-64.85" type="line"/>
		</contour>
	</outline>
</glyph>
<glyph name="to-6" format="2">
	<advance width="200"/>
	<outline>
		<contour>
			<point x="-42.53" y="191.565" type="line"/>
			<point x="157.47" y="131.565" type="line"/>
			<point x="42.53" y="-251.565" type="line"/>
			<point x="-157.47" y="-191.565" type="line"/>
		</contour>
	</outline>
</glyph>
<glyph name="to-60" format="2">
	<advance width="200"/>
	<outline>
		<contour>
			<point x="91.634" y="63.878" type="line"/>
			<point x="291.634" y="-536.122" type="line"/>
			<point x="-91.634" y="-663.878" type="line"/>
			<point x="-291.634" y="-63.878" type="line"/>
		</contour>
	</outline>
</glyph>
<glyph name="to-61" format="2">
	<advance width="200"/>
	<outline>
		<contour>
			<point x="91.946" y="62.933" type="line"/>
			<point x="291.946" y="-547.067" type="line"/>
			<point x="-91.946" y="-672.933" type="line"/>
			<point x="-291.946" y="-62.933" type="line"/>
		</contour>
	</outline>
</glyph>
<glyph name="to-62" format="2">
	<advance width="500"/>
	<outline>
		<contour>
			<point x="-94" y="126" type="line"/>
			<point x="406" y="-494" type="line"/>
			<point x="94" y="-746" type="line"/>
			<point x="-406" y="-126" type="line"/>
		</contour>
	</outline>
</glyph>
<glyph name="to-63" format="2">
	<advance width="200"/>
	<outline>
		<contour>
			<point x="90.625" y="60.516" type="line"/>
			<point x="290.625" y="-569.484" type="line"/>
			<point x="-90.625" y="-690.516" type="line"/>
			<point x="-290.625" y="-60.516" type="line"/>
		</contour>
	</outline>
</glyph>
<glyph name="to-64" format="2">
	<advance width="500"/>
	<outline>
		<contour>
			<point x="-92" y="123" type="line"/>
			<point x="408" y="-517" type="line"/>
			<point x="92" y="-763" type="line"/>
			<point x="-408" y="-123" type="line"/>
		</contour>
	</outline>
</glyph>
<glyph name="to-65" format="2">
	<advance width="200"/>
	<outline>
		<contour>
			<point x="91.156" y="58.817" type="line"/>
			<point x="291.156" y="-591.183" type="line"/>
			<point x="-91.156" y="-708.817" type="line"/>
			<point x="-291.156" y="-58.817" type="line"/>
		</contour>
	</outline>
</glyph>
<glyph name="to-66" format="2">
	<advance width="200"/>
	<outline>
		<contour>
			<point x="93.319" y="58.581" type="line"/>
			<point x="293.319" y="-601.419" type="line"/>
			<point x="-93.319" y="-718.581" type="line"/>
			<point x="-293.319" y="-58.581" type="line"/>
		</contour>
	</outline>
</glyph>
<glyph name="to-67" format="2">
	<advance width="200"/>
	<outline>
		<contour>
			<point x="-4.178" y="28.604" type="line"/>
			<point x="195.822" y="-641.396" type="line"/>
			<point x="4.178" y="-698.604" type="line"/>
			<point x="-195.822" y="-28.604" type="line"/>
		</contour>
	</outline>
</glyph>
<glyph name="to-68" format="2">
	<advance width="100"/>
	<outline>
		<contour>
			<point x="-0.532" y="7.275" type="line"/>
			<point x="99.468" y="-672.725" type="line"/>
			<point x="0.532" y="-687.275" type="line"/>
			<point x="-99.468" y="-7.275" type="line"/>
		</contour>
	</outline>
</glyph>
<glyph name="to-69" format="2">
	<advance width="200"/>
	<outline>
		<contour>
			<point x="94.014" y="56.236" type="line"/>
			<point x="294.014" y="-633.764" type="line"/>
			<point x="-94.014" y="-746.236" type="line"/>
			<point x="-294.014" y="-56.236" type="line"/>
		</contour>
	</outline>
</glyph>
<glyph name="to-7" format="2">
	<advance width="100"/>
	<outline>
		<contour>
			<point x="-9.858" y="57.346" type="line"/>
			<point x="90.142" y="-12.654" type="line"/>
			<point x="9.858" y="-127.346" type="line"/>
			<point x="-90.142" y="-57.346" type="line"/>
		</contour>
	</outline>
</glyph>
<glyph name="to-70" format="2">
	<advance width="100"/>
	<outline>
		<contour>
			<point x="-0.503" y="7.071" type="line"/>
			<point x="99.497" y="-692.929" type="line"/>
			<point x="0.503" y="-707.071" type="line"/>
			<point x="-99.497" y="-7.071" type="line"/>
		</contour>
	</outline>
</glyph>
<glyph name="to-71" format="2">
	<advance width="200"/>
	<outline>
		<contour>
			<point x="94.433" y="54.77" type="line"/>
			<point x="294.433" y="-655.23" type="line"/>
			<point x="-94.433" y="-764.77" type="line"/>
			<point x="-294.433" y="-54.77" type="line"/>
		</contour>
	</outline>
</glyph>
<glyph name="to-72" format="2">
	<advance width="200"/>
	<outline>
		<contour>
			<point x="94.631" y="54.064" type="line"/>
			<point x="294.631" y="-665.936" type="line"/>
			<point x="-94.631" y="-774.064" type="line"/>
			<point x="-294.631" y="-54.064" type="line"/>
		</contour>
	</outline>
</glyph>
<glyph name="to-73" format="2">
	<advance width="200"/>
	<outline>
		<contour>
			<point x="92.892" y="52.847" type="line"/>
			<point x="292.892" y="-677.153" type="line"/>
			<point x="-92.892" y="-782.847" type="line"/>
			<point x="-292.892" y="-52.847" type="line"/>
		</contour>
	</outline>
</glyph>
<glyph name="to-74" format="2">
	<advance width="200"/>
	<outline>
		<contour>
			<point x="-3.464" y="26.091" type="line"/>
			<point x="196.536" y="-713.909" type="line"/>
			<point x="3.464" y="-766.091" type="line"/>
			<point x="-196.536" y="-26.091" type="line"/>
		</contour>
	</outline>
</glyph>
<glyph name="to-75" format="2">
	<advance width="200"/>
	<outline>
		<contour>
			<point x="93.247" y="51.533" type="line"/>
			<point x="293.247" y="-698.467" type="line"/>
			<point x="-93.247" y="-801.533" type="line"/>
			<point x="-293.247" y="-51.533" type="line"/>
		</contour>
	</outline>
</glyph>
<glyph name="to-76" format="2">
	<advance width="100"/>
	<outline>
		<contour>
			<point x="-0.427" y="6.523" type="line"/>
			<point x="99.573" y="-753.477" type="line"/>
			<point x="0.427" y="-766.523" type="line"/>
			<point x="-99.573" y="-6.523" type="line"/>
		</contour>
	</outline>
</glyph>
<glyph name="to-77" format="2">
	<advance width="200"/>
	<outline>
		<contour>
			<point x="95.513" y="50.782" type="line"/>
			<point x="295.513" y="-719.218" type="line"/>
			<point x="-95.513" y="-820.782" type="line"/>
			<point x="-295.513" y="-50.782" type="line"/>
		</contour>
	</outline>
</glyph>
<glyph name="to-78" format="2">
	<advance width="200"/>
	<outline>
		<contour>
			<point x="95.67" y="50.172" type="line"/>
			<point x="295.67" y="-729.828" type="line"/>
			<point x="-95.67" y="-830.172" type="line"/>
			<point x="-295.67" y="-50.172" type="line"/>
		</contour>
	</outline>
</glyph>
<glyph name="to-79" format="2">
	<advance width="100"/>
	<outline>
		<contour>
			<point x="19.446" y="8.791" type="line"/>
			<point x="119.446" y="-781.209" type="line"/>
			<point x="-19.446" y="-798.791" type="line"/>
			<point x="-119.446" y="-8.791" type="line"/>
		</contour>
	</outline>
</glyph>
<glyph name="to-8" format="2">
	<advance width="200"/>
	<outline>
		<contour>
			<point x="-25.722" y="185.695" type="line"/>
			<point x="174.278" y="105.695" type="line"/>
			<point x="25.722" y="-265.695" type="line"/>
			<point x="-174.278" y="-185.695" type="line"/>
		</contour>
	</outline>
</glyph>
<glyph name="to-80" format="2">
	<advance width="200"/>
	<outline>
		<contour>
			<point x="95.969" y="48.992" type="line"/>
			<point x="295.969" y="-751.008" type="line"/>
			<point x="-95.969" y="-848.992" type="line"/>
			<point x="-295.969" y="-48.992" type="line"/>
		</contour>
	</outline>
</glyph>
<glyph name="to-81" format="2">
	<advance width="500"/>
	<outline>
		<contour>
			<point x="-80" y="105" type="line"/>
			<point x="420" y="-705" type="line"/>
			<point x="80" y="-915" type="line"/>
			<point x="-420" y="-105" type="line"/>
		</contour>
	</outline>
</glyph>
<glyph name="to-82" format="2">
	<advance width="100"/>
	<outline>
		<contour>
			<point x="-0.368" y="6.053" type="line"/>
			<point x="99.632" y="-813.947" type="line"/>
			<point x="0.368" y="-826.053" type="line"/>
			<point x="-99.632" y="-6.053" type="line"/>
		</contour>
	</outline>
</glyph>
<glyph name="to-83" format="2">
	<advance width="200"/>
	<outline>
		<contour>
			<point x="96.379" y="47.32" type="line"/>
			<point x="296.379" y="-782.68" type="line"/>
			<point x="-96.379" y="-877.32" type="line"/>
			<point x="-296.379" y="-47.32" type="line"/>
		</contour>
	</outline>
</glyph>
<glyph name="to-84" format="2">
	<advance width="100"/>
	<outline>
		<contour>
			<point x="19.509" y="8.275" type="line"/>
			<point x="119.509" y="-831.725" type="line"/>
			<point x="-19.509" y="-848.275" type="line"/>
			<point x="-119.509" y="-8.275" type="line"/>
		</contour>
	</outline>
</glyph>
<glyph name="to-85" format="2">
	<advance width="100"/>
	<outline>
		<contour>
			<point x="19.521" y="8.179" type="line"/>
			<point x="119.521" y="-841.821" type="line"/>
			<point x="-19.521" y="-858.179" type="line"/>
			<point x="-119.521" y="-8.179" type="line"/>
		</contour>
	</outline>
</glyph>
<glyph name="to-86" format="2">
	<advance width="100"/>
	<outline>
		<contour>
			<point x="19.532" y="8.085" type="line"/>
			<point x="119.532" y="-851.915" type="line"/>
			<point x="-19.532" y="-868.085" type="line"/>
			<point x="-119.532" y="-8.085" type="line"/>
		</contour>
	</outline>
</glyph>
<glyph name="to-87" format="2">
	<advance width="100"/>
	<outline>
		<contour>
			<point x="-0.327" y="5.71" type="line"/>
			<point x="99.673" y="-864.29" type="line"/>
			<point x="0.327" y="-875.71" type="line"/>
			<point x="-99.673" y="-5.71" type="line"/>
		</contour>
	</outline>
</glyph>
<glyph name="to-88" format="2">
	<advance width="200"/>
	<outline>
		<contour>
			<point x="95.027" y="44.324" type="line"/>
			<point x="295.027" y="-835.676" type="line"/>
			<point x="-95.027" y="-924.324" type="line"/>
			<point x="-295.027" y="-44.324" type="line"/>
		</contour>
	</outline>
</glyph>
<glyph name="to-89" format="2">
	<advance width="200"/>
	<outline>
		<contour>
			<point x="97.085" y="44.289" type="line"/>
			<point x="297.085" y="-845.711" type="line"/>
			<point x="-97.085" y="-934.289" type="line"/>
			<point x="-297.085" y="-44.289" type="line"/>
		</contour>
	</outline>
</glyph>
<glyph name="to-9" format="2">
	<advance width="100"/>
	<outline>
		<contour>
			<point x="-16.552" y="37.165" type="line"/>
			<point x="83.448" y="-52.835" type="line"/>
			<point x="16.552" y="-127.165" type="line"/>
			<point x="-83.448" y="-37.165" type="line"/>
		</contour>
	</outline>
</glyph>
<glyph name="to-90" format="2">
	<advance width="500"/>
	<outline>
		<contour>
			<point x="-75" y="97" type="line"/>
			<point x="425" y="-803" type="line"/>
			<point x="75" y="-997" type="line"/>
			<point x="-425" y="-97" type="line"/>
		</contour>
	</outline>
</glyph>
<glyph name="to-91" format="2">
	<advance width="500"/>
	<outline>
		<contour>
			<point x="-75" y="96" type="line"/>
			<point x="425" y="-814" type="line"/>
			<point x="75" y="-1006" type="line"/>
			<point x="-425" y="-96" type="line"/>
		</contour>
	</outline>
</glyph>
<glyph name="to-92" format="2">
	<advance width="200"/>
	<outline>
		<contour>
			<point x="97.39" y="42.911" type="line"/>
			<point x="297.39" y="-877.089" type="line"/>
			<point x="-97.39" y="-962.911" type="line"/>
			<point x="-297.39" y="-42.911" type="line"/>
		</contour>
	</outline>
</glyph>
<glyph name="to-93" format="2">
	<advance width="100"/>
	<outline>
		<contour>
			<point x="19.599" y="7.484" type="line"/>
			<point x="119.599" y="-922.516" type="line"/>
			<point x="-19.599" y="-937.484" type="line"/>
			<point x="-119.599" y="-7.484" type="line"/>
		</contour>
	</outline>
</glyph>
<glyph name="to-94" format="2">
	<advance width="200"/>
	<outline>
		<contour>
			<point x="95.621" y="41.622" type="line"/>
			<point x="295.621" y="-898.378" type="line"/>
			<point x="-95.621" y="-981.622" type="line"/>
			<point x="-295.621" y="-41.622" type="line"/>
		</contour>
	</outline>
</glyph>
<glyph name="to-95" format="2">
	<advance width="200"/>
	<outline>
		<contour>
			<point x="97.667" y="41.614" type="line"/>
			<point x="297.667" y="-908.386" type="line"/>
			<point x="-97.667" y="-991.614" type="line"/>
			<point x="-297.667" y="-41.614" type="line"/>
		</contour>
	</outline>
</glyph>
<glyph name="to-96" format="2">
	<advance width="500"/>
	<outline>
		<contour>
			<point x="-73" y="92" type="line"/>
			<point x="427" y="-868" type="line"/>
			<point x="73" y="-1052" type="line"/>
			<point x="-427" y="-92" type="line"/>
		</contour>
	</outline>
</glyph>
<glyph name="to-97" format="2">
	<advance width="100"/>
	<outline>
		<contour>
			<point x="-0.264" y="5.127" type="line"/>
			<point x="99.736" y="-964.873" type="line"/>
			<point x="0.264" y="-975.127" type="line"/>
			<point x="-99.736" y="-5.127" type="line"/>
		</contour>
	</outline>
</glyph>
<glyph name="to-98" format="2">
	<advance width="100"/>
	<outline>
		<contour>
			<point x="19.638" y="7.106" type="line"/>
			<point x="119.638" y="-972.894" type="line"/>
			<point x="-19.638" y="-987.106" type="line"/>
			<point x="-119.638" y="-7.106" type="line"/>
		</contour>
	</outline>
</glyph>
<glyph name="to-99" format="2">
	<advance width="500"/>
	<outline>
		<contour>
			<point x="-71" y="90" type="line"/>
			<point x="429" y="-900" type="line"/>
			<point x="71" y="-1080" type="line"/>
			<point x="-429" y="-90" type="line"/>
		</contour>
	</outline>
</glyph>
<glyph name="to1" format="2">
	<advance width="100"/>
	<outline>
		<contour>
			<point x="-56.965" y="69.653" type="line"/>
			<point x="43.035" y="79.653" type="line"/>
			<point x="56.965" y="-59.653" type="line"/>
			<point x="-43.035" y="-69.653" type="line"/>
		</contour>
	</outline>
</glyph>
<glyph name="to10" format="2">
	<advance width="200"/>
	<outline>
		<contour>
			<point x="-190.337" y="180.674" type="line"/>
			<point x="9.663" y="280.674" type="line"/>
			<point x="190.337" y="-80.674" type="line"/>
			<point x="-9.663" y="-180.674" type="line"/>
		</contour>
	</outline>
</glyph>
<glyph name="to100" format="2">
	<advance width="200"/>
	<outline>
		<contour>
			<point x="-296.116" y="39.223" type="line"/>
			<point x="-96.116" y="1039.223" type="line"/>
			<point x="296.116" y="960.777" type="line"/>
			<point x="96.116" y="-39.223" type="line"/>
		</contour>
	</outline>
</glyph>
<glyph name="to101" format="2">
	<advance width="100"/>
	<outline>
		<contour>
			<point x="-99.757" y="4.926" type="line"/>
			<point x="0.243" y="1014.926" type="line"/>
			<point x="99.757" y="1005.074" type="line"/>
			<point x="-0.243" y="-4.926" type="line"/>
		</contour>
	</outline>
</glyph>
<glyph name="to102" format="2">
	<advance width="200"/>
	<outline>
		<contour>
			<point x="-198.131" y="19.241" type="line"/>
			<point x="1.869" y="1039.241" type="line"/>
			<point x="198.131" y="1000.759" type="line"/>
			<point x="-1.869" y="-19.241" type="line"/>
		</contour>
	</outline>
</glyph>
<glyph name="to104" format="2">
	<advance width="100"/>
	<outline>
		<contour>
			<point x="-119.679" y="6.7" type="line"/>
			<point x="-19.679" y="1046.7" type="line"/>
			<point x="119.679" y="1033.3" type="line"/>
			<point x="19.679" y="-6.7" type="line"/>
		</contour>
	</outline>
</glyph>
<glyph name="to105" format="2">
	<advance width="500"/>
	<outline>
		<contour>
			<point x="-431" y="86" type="line"/>
			<point x="69" y="1136" type="line"/>
			<point x="431" y="964" type="line"/>
			<point x="-69" y="-86" type="line"/>
		</contour>
	</outline>
</glyph>
<glyph name="to106" format="2">
	<advance width="100"/>
	<outline>
		<contour>
			<point x="-99.779" y="4.696" type="line"/>
			<point x="0.221" y="1064.696" type="line"/>
			<point x="99.779" y="1055.304" type="line"/>
			<point x="-0.221" y="-4.696" type="line"/>
		</contour>
	</outline>
</glyph>
<glyph name="to107" format="2">
	<advance width="100"/>
	<outline>
		<contour>
			<point x="-99.783" y="4.653" type="line"/>
			<point x="0.217" y="1074.653" type="line"/>
			<point x="99.783" y="1065.347" type="line"/>
			<point x="-0.217" y="-4.653" type="line"/>
		</contour>
	</outline>
</glyph>
<glyph name="to108" format="2">
	<advance width="200"/>
	<outline>
		<contour>
			<point x="-198.328" y="18.209" type="line"/>
			<point x="1.672" y="1098.209" type="line"/>
			<point x="198.328" y="1061.791" type="line"/>
			<point x="-1.672" y="-18.209" type="line"/>
		</contour>
	</outline>
</glyph>
<glyph name="to109" format="2">
	<advance width="200"/>
	<outline>
		<contour>
			<point x="-298.683" y="36.456" type="line"/>
			<point x="-98.683" y="1126.456" type="line"/>
			<point x="298.683" y="1053.544" type="line"/>
			<point x="98.683" y="-36.456" type="line"/>
		</contour>
	</outline>
</glyph>
<glyph name="to11" format="2">
	<advance width="100"/>
	<outline>
		<contour>
			<point x="-101.796" y="47.087" type="line"/>
			<point x="-1.796" y="157.087" type="line"/>
			<point x="101.796" y="62.913" type="line"/>
			<point x="1.796" y="-47.087" type="line"/>
		</contour>
	</outline>
</glyph>
<glyph name="to110" format="2">
	<advance width="200"/>
	<outline>
		<contour>
			<point x="-296.774" y="35.777" type="line"/>
			<point x="-96.774" y="1135.777" type="line"/>
			<point x="296.774" y="1064.223" type="line"/>
			<point x="96.774" y="-35.777" type="line"/>
		</contour>
	</outline>
</glyph>
<glyph name="to111" format="2">
	<advance width="100"/>
	<outline>
		<contour>
			<point x="-119.718" y="6.281" type="line"/>
			<point x="-19.718" y="1116.281" type="line"/>
			<point x="119.718" y="1103.719" type="line"/>
			<point x="19.718" y="-6.281" type="line"/>
		</contour>
	</outline>
</glyph>
<glyph name="to112" format="2">
	<advance width="100"/>
	<outline>
		<contour>
			<point x="-99.802" y="4.447" type="line"/>
			<point x="0.198" y="1124.447" type="line"/>
			<point x="99.802" y="1115.553" type="line"/>
			<point x="-0.198" y="-4.447" type="line"/>
		</contour>
	</outline>
</glyph>
<glyph name="to113" format="2">
	<advance width="200"/>
	<outline>
		<contour>
			<point x="-298.909" y="35.205" type="line"/>
			<point x="-98.909" y="1165.205" type="line"/>
			<point x="298.909" y="1094.795" type="line"/>
			<point x="98.909" y="-35.205" type="line"/>
		</contour>
	</outline>
</glyph>
<glyph name="to114" format="2">
	<advance width="100"/>
	<outline>
		<contour>
			<point x="-99.809" y="4.369" type="line"/>
			<point x="0.191" y="1144.369" type="line"/>
			<point x="99.809" y="1135.631" type="line"/>
			<point x="-0.191" y="-4.369" type="line"/>
		</contour>
	</outline>
</glyph>
<glyph name="to115" format="2">
	<advance width="100"/>
	<outline>
		<contour>
			<point x="-119.737" y="6.064" type="line"/>
			<point x="-19.737" y="1156.064" type="line"/>
			<point x="119.737" y="1143.936" type="line"/>
			<point x="19.737" y="-6.064" type="line"/>
		</contour>
	</outline>
</glyph>
<glyph name="to116" format="2">
	<advance width="100"/>
	<outline>
		<contour>
			<point x="-119.741" y="6.012" type="line"/>
			<point x="-19.741" y="1166.012" type="line"/>
			<point x="119.741" y="1153.988" type="line"/>
			<point x="19.741" y="-6.012" type="line"/>
		</contour>
	</outline>
</glyph>
<glyph name="to117" format="2">
	<advance width="200"/>
	<outline>
		<contour>
			<point x="-299.112" y="34.036" type="line"/>
			<point x="-99.112" y="1204.036" type="line"/>
			<point x="299.112" y="1135.964" type="line"/>
			<point x="99.112" y="-34.036" type="line"/>
		</contour>
	</outline>
</glyph>
<glyph name="to118" format="2">
	<advance width="200"/>
	<outline>
		<contour>
			<point x="-297.188" y="33.422" type="line"/>
			<point x="-97.188" y="1213.422" type="line"/>
			<point x="297.188" y="1146.578" type="line"/>
			<point x="97.188" y="-33.422" type="line"/>
		</contour>
	</outline>
</glyph>
<glyph name="to119" format="2">
	<advance width="100"/>
	<outline>
		<contour>
			<point x="-99.824" y="4.187" type="line"/>
			<point x="0.176" y="1194.187" type="line"/>
			<point x="99.824" y="1185.813" type="line"/>
			<point x="-0.176" y="-4.187" type="line"/>
		</contour>
	</outline>
</glyph>
<glyph name="to12" format="2">
	<advance width="500"/>
	<outline>
		<contour>
			<point x="-297" y="194" type="line"/>
			<point x="203" y="314" type="line"/>
			<point x="297" y="-74" type="line"/>
			<point x="-203" y="-194" type="line"/>
		</contour>
	</outline>
</glyph>
<glyph name="to120" format="2">
	<advance width="200"/>
	<outline>
		<contour>
			<point x="-297.279" y="32.88" type="line"/>
			<point x="-97.279" y="1232.88" type="line"/>
			<point x="297.279" y="1167.12" type="line"/>
			<point x="97.279" y="-32.88" type="line"/>
		</contour>
	</outline>
</glyph>
<glyph name="to121" format="2">
	<advance width="200"/>
	<outline>
		<contour>
			<point x="-198.661" y="16.308" type="line"/>
			<point x="1.339" y="1226.308" type="line"/>
			<point x="198.661" y="1193.692" type="line"/>
			<point x="-1.339" y="-16.308" type="line"/>
		</contour>
	</outline>
</glyph>
<glyph name="to122" format="2">
	<advance width="500"/>
	<outline>
		<contour>
			<point x="-435" y="76" type="line"/>
			<point x="65" y="1296" type="line"/>
			<point x="435" y="1144" type="line"/>
			<point x="-65" y="-76" type="line"/>
		</contour>
	</outline>
</glyph>
<glyph name="to123" format="2">
	<advance width="100"/>
	<outline>
		<contour>
			<point x="-119.77" y="5.672" type="line"/>
			<point x="-19.77" y="1235.672" type="line"/>
			<point x="119.77" y="1224.328" type="line"/>
			<point x="19.77" y="-5.672" type="line"/>
		</contour>
	</outline>
</glyph>
<glyph name="to124" format="2">
	<advance width="100"/>
	<outline>
		<contour>
			<point x="-99.838" y="4.019" type="line"/>
			<point x="0.162" y="1244.019" type="line"/>
			<point x="99.838" y="1235.981" type="line"/>
			<point x="-0.162" y="-4.019" type="line"/>
		</contour>
	</outline>
</glyph>
<glyph name="to125" format="2">
	<advance width="100"/>
	<outline>
		<contour>
			<point x="-119.777" y="5.582" type="line"/>
			<point x="-19.777" y="1255.582" type="line"/>
			<point x="119.777" y="1244.418" type="line"/>
			<point x="19.777" y="-5.582" type="line"/>
		</contour>
	</outline>
</glyph>
<glyph name="to126" format="2">
	<advance width="200"/>
	<outline>
		<contour>
			<point x="-297.527" y="31.354" type="line"/>
			<point x="-97.527" y="1291.354" type="line"/>
			<point x="297.527" y="1228.646" type="line"/>
			<point x="97.527" y="-31.354" type="line"/>
		</contour>
	</outline>
</glyph>
<glyph name="to127" format="2">
	<advance width="200"/>
	<outline>
		<contour>
			<point x="-299.541" y="31.424" type="line"/>
			<point x="-99.541" y="1301.424" type="line"/>
			<point x="299.541" y="1238.576" type="line"/>
			<point x="99.541" y="-31.424" type="line"/>
		</contour>
	</outline>
</glyph>
<glyph name="to13" format="2">
	<advance width="500"/>
	<outline>
		<contour>
			<point x="-300" y="194" type="line"/>
			<point x="200" y="324" type="line"/>
			<point x="300" y="-64" type="line"/>
			<point x="-200" y="-194" type="line"/>
		</contour>
	</outline>
</glyph>
<glyph name="to14" format="2">
	<advance width="200"/>
	<outline>
		<contour>
			<point x="-214.692" y="163.846" type="line"/>
			<point x="-14.692" y="303.846" type="line"/>
			<point x="214.692" y="-23.846" type="line"/>
			<point x="14.692" y="-163.846" type="line"/>
		</contour>
	</outline>
</glyph>
<glyph name="to15" format="2">
	<advance width="200"/>
	<outline>
		<contour>
			<point x="-220" y="160" type="line"/>
			<point x="-20" y="310" type="line"/>
			<point x="220" y="-10" type="line"/>
			<point x="20" y="-160" type="line"/>
		</contour>
	</outline>
</glyph>
<glyph name="to16" format="2">
	<advance width="500"/>
	<outline>
		<contour>
			<point x="-311" y="190" type="line"/>
			<point x="189" y="350" type="line"/>
			<point x="311" y="-30" type="line"/>
			<point x="-189" y="-190" type="line"/>
		</contour>
	</outline>
</glyph>
<glyph name="to17" format="2">
	<advance width="200"/>
	<outline>
		<contour>
			<point x="-229.53" y="152.388" type="line"/>
			<point x="-29.53" y="322.388" type="line"/>
			<point x="229.53" y="17.612" type="line"/>
			<point x="29.53" y="-152.388" type="line"/>
		</contour>
	</outline>
</glyph>
<glyph name="to18" format="2">
	<advance width="200"/>
	<outline>
		<contour>
			<point x="-233.793" y="148.659" type="line"/>
			<point x="-33.793" y="328.659" type="line"/>
			<point x="233.793" y="31.341" type="line"/>
			<point x="33.793" y="-148.659" type="line"/>
		</contour>
	</outline>
</glyph>
<glyph name="to19" format="2">
	<advance width="200"/>
	<outline>
		<contour>
			<point x="-239.127" y="146.45" type="line"/>
			<point x="-39.127" y="336.45" type="line"/>
			<point x="239.127" y="43.55" type="line"/>
			<point x="39.127" y="-146.45" type="line"/>
		</contour>
	</outline>
</glyph>
<glyph name="to2" format="2">
	<advance width="200"/>
	<outline>
		<contour>
			<point x="-119.901" y="199.007" type="line"/>
			<point x="80.099" y="219.007" type="line"/>
			<point x="119.901" y="-179.007" type="line"/>
			<point x="-80.099" y="-199.007" type="line"/>
		</contour>
	</outline>
</glyph>
<glyph name="to20" format="2">
	<advance width="200"/>
	<outline>
		<contour>
			<point x="-242.836" y="142.836" type="line"/>
			<point x="-42.836" y="342.836" type="line"/>
			<point x="242.836" y="57.164" type="line"/>
			<point x="42.836" y="-142.836" type="line"/>
		</contour>
	</outline>
</glyph>
<glyph name="to21" format="2">
	<advance width="200"/>
	<outline>
		<contour>
			<point x="-246.276" y="139.31" type="line"/>
			<point x="-46.276" y="349.31" type="line"/>
			<point x="246.276" y="70.69" type="line"/>
			<point x="46.276" y="-139.31" type="line"/>
		</contour>
	</outline>
</glyph>
<glyph name="to22" format="2">
	<advance width="100"/>
	<outline>
		<contour>
			<point x="-95.518" y="20.69" type="line"/>
			<point x="4.482" y="240.69" type="line"/>
			<point x="95.518" y="199.31" type="line"/>
			<point x="-4.482" y="-20.69" type="line"/>
		</contour>
	</outline>
</glyph>
<glyph name="to23" format="2">
	<advance width="100"/>
	<outline>
		<contour>
			<point x="-114.195" y="27.911" type="line"/>
			<point x="-14.195" y="257.911" type="line"/>
			<point x="114.195" y="202.089" type="line"/>
			<point x="14.195" y="-27.911" type="line"/>
		</contour>
	</outline>
</glyph>
<glyph name="to24" format="2">
	<advance width="100"/>
	<outline>
		<contour>
			<point x="-96.154" y="19.231" type="line"/>
			<point x="3.846" y="259.231" type="line"/>
			<point x="96.154" y="220.769" type="line"/>
			<point x="-3.846" y="-19.231" type="line"/>
		</contour>
	</outline>
</glyph>
<glyph name="to25" format="2">
	<advance width="500"/>
	<outline>
		<contour>
			<point x="-339" y="179" type="line"/>
			<point x="161" y="429" type="line"/>
			<point x="339" y="71" type="line"/>
			<point x="-161" y="-179" type="line"/>
		</contour>
	</outline>
</glyph>
<glyph name="to26" format="2">
	<advance width="100"/>
	<outline>
		<contour>
			<point x="-115.334" y="25.129" type="line"/>
			<point x="-15.334" y="285.129" type="line"/>
			<point x="115.334" y="234.871" type="line"/>
			<point x="15.334" y="-25.129" type="line"/>
		</contour>
	</outline>
</glyph>
<glyph name="to27" format="2">
	<advance width="500"/>
	<outline>
		<contour>
			<point x="-345" y="176" type="line"/>
			<point x="155" y="446" type="line"/>
			<point x="345" y="94" type="line"/>
			<point x="-155" y="-176" type="line"/>
		</contour>
	</outline>
</glyph>
<glyph name="to28" format="2">
	<advance width="100"/>
	<outline>
		<contour>
			<point x="-115.922" y="23.544" type="line"/>
			<point x="-15.922" y="303.544" type="line"/>
			<point x="115.922" y="256.456" type="line"/>
			<point x="15.922" y="-23.544" type="line"/>
		</contour>
	</outline>
</glyph>
<glyph name="to29" format="2">
	<advance width="500"/>
	<outline>
		<contour>
			<point x="-350" y="173" type="line"/>
			<point x="150" y="463" type="line"/>
			<point x="350" y="117" type="line"/>
			<point x="-150" y="-173" type="line"/>
		</contour>
	</outline>
</glyph>
<glyph name="to3" format="2">
	<advance width="100"/>
	<outline>
		<contour>
			<point x="-70.114" y="67.048" type="line"/>
			<point x="29.886" y="97.048" type="line"/>
			<point x="70.114" y="-37.048" type="line"/>
			<point x="-29.886" y="-67.048" type="line"/>
		</contour>
	</outline>
</glyph>
<glyph name="to30" format="2">
	<advance width="100"/>
	<outline>
		<contour>
			<point x="-116.408" y="22.136" type="line"/>
			<point x="-16.408" y="322.136" type="line"/>
			<point x="116.408" y="277.864" type="line"/>
			<point x="16.408" y="-22.136" type="line"/>
		</contour>
	</outline>
</glyph>
<glyph name="to31" format="2">
	<advance width="200"/>
	<outline>
		<contour>
			<point x="-268.059" y="108.425" type="line"/>
			<point x="-68.059" y="418.425" type="line"/>
			<point x="268.059" y="201.575" type="line"/>
			<point x="68.059" y="-108.425" type="line"/>
		</contour>
	</outline>
</glyph>
<glyph name="to32" format="2">
	<advance width="200"/>
	<outline>
		<contour>
			<point x="-269.6" y="105" type="line"/>
			<point x="-69.6" y="425" type="line"/>
			<point x="269.6" y="214" type="line"/>
			<point x="69.6" y="-105" type="line"/>
		</contour>
	</outline>
</glyph>
<glyph name="to33" format="2">
	<advance width="500"/>
	<outline>
		<contour>
			<point x="-360" y="167" type="line"/>
			<point x="140" y="497" type="line"/>
			<point x="360" y="163" type="line"/>
			<point x="-140" y="-167" type="line"/>
		</contour>
	</outline>
</glyph>
<glyph name="to34" format="2">
	<advance width="100"/>
	<outline>
		<contour>
			<point x="-117.156" y="19.752" type="line"/>
			<point x="-17.156" y="359.752" type="line"/>
			<point x="117.156" y="320.248" type="line"/>
			<point x="17.156" y="-19.752" type="line"/>
		</contour>
	</outline>
</glyph>
<glyph name="to35" format="2">
	<advance width="100"/>
	<outline>
		<contour>
			<point x="-117.307" y="19.23" type="line"/>
			<point x="-17.307" y="369.23" type="line"/>
			<point x="117.307" y="330.77" type="line"/>
			<point x="17.307" y="-19.23" type="line"/>
		</contour>
	</outline>
</glyph>
<glyph name="to36" format="2">
	<advance width="500"/>
	<outline>
		<contour>
			<point x="-367" y="162" type="line"/>
			<point x="133" y="522" type="line"/>
			<point x="367" y="198" type="line"/>
			<point x="-133" y="-162" type="line"/>
		</contour>
	</outline>
</glyph>
<glyph name="to37" format="2">
	<advance width="200"/>
	<outline>
		<contour>
			<point x="-277.701" y="96.054" type="line"/>
			<point x="-77.701" y="466.054" type="line"/>
			<point x="277.701" y="273.946" type="line"/>
			<point x="77.701" y="-96.054" type="line"/>
		</contour>
	</outline>
</glyph>
<glyph name="to38" format="2">
	<advance width="200"/>
	<outline>
		<contour>
			<point x="-278.753" y="94.081" type="line"/>
			<point x="-78.753" y="474.081" type="line"/>
			<point x="278.753" y="285.919" type="line"/>
			<point x="78.753" y="-94.081" type="line"/>
		</contour>
	</outline>
</glyph>
<glyph name="to39" format="2">
	<advance width="100"/>
	<outline>
		<contour>
			<point x="-117.806" y="17.386" type="line"/>
			<point x="-17.806" y="407.386" type="line"/>
			<point x="117.806" y="372.614" type="line"/>
			<point x="17.806" y="-17.386" type="line"/>
		</contour>
	</outline>
</glyph>
<glyph name="to4" format="2">
	<advance width="200"/>
	<outline>
		<contour>
			<point x="-139.615" y="198.077" type="line"/>
			<point x="60.385" y="238.077" type="line"/>
			<point x="139.615" y="-158.077" type="line"/>
			<point x="-60.385" y="-198.077" type="line"/>
		</contour>
	</outline>
</glyph>
<glyph name="to40" format="2">
	<advance width="200"/>
	<outline>
		<contour>
			<point x="-280.674" y="90.337" type="line"/>
			<point x="-80.674" y="490.337" type="line"/>
			<point x="280.674" y="309.663" type="line"/>
			<point x="80.674" y="-90.337" type="line"/>
		</contour>
	</outline>
</glyph>
<glyph name="to41" format="2">
	<advance width="500"/>
	<outline>
		<contour>
			<point x="-377" y="155" type="line"/>
			<point x="123" y="565" type="line"/>
			<point x="377" y="255" type="line"/>
			<point x="-123" y="-155" type="line"/>
		</contour>
	</outline>
</glyph>
<glyph name="to42" format="2">
	<advance width="200"/>
	<outline>
		<contour>
			<point x="-282.378" y="86.847" type="line"/>
			<point x="-82.378" y="506.847" type="line"/>
			<point x="282.378" y="333.153" type="line"/>
			<point x="82.378" y="-86.847" type="line"/>
		</contour>
	</outline>
</glyph>
<glyph name="to43" format="2">
	<advance width="100"/>
	<outline>
		<contour>
			<point x="-98.7" y="11.326" type="line"/>
			<point x="1.3" y="441.326" type="line"/>
			<point x="98.7" y="418.674" type="line"/>
			<point x="-1.3" y="-11.326" type="line"/>
		</contour>
	</outline>
</glyph>
<glyph name="to44" format="2">
	<advance width="200"/>
	<outline>
		<contour>
			<point x="-191.037" y="41.38" type="line"/>
			<point x="8.963" y="481.38" type="line"/>
			<point x="191.037" y="398.62" type="line"/>
			<point x="-8.963" y="-41.38" type="line"/>
		</contour>
	</outline>
</glyph>
<glyph name="to45" format="2">
	<advance width="100"/>
	<outline>
		<contour>
			<point x="-98.809" y="10.847" type="line"/>
			<point x="1.191" y="460.847" type="line"/>
			<point x="98.809" y="439.153" type="line"/>
			<point x="-1.191" y="-10.847" type="line"/>
		</contour>
	</outline>
</glyph>
<glyph name="to46" format="2">
	<advance width="200"/>
	<outline>
		<contour>
			<point x="-285.248" y="80.543" type="line"/>
			<point x="-85.248" y="540.543" type="line"/>
			<point x="285.248" y="379.457" type="line"/>
			<point x="85.248" y="-80.543" type="line"/>
		</contour>
	</outline>
</glyph>
<glyph name="to47" format="2">
	<advance width="100"/>
	<outline>
		<contour>
			<point x="-118.467" y="14.568" type="line"/>
			<point x="-18.467" y="484.568" type="line"/>
			<point x="118.467" y="455.432" type="line"/>
			<point x="18.467" y="-14.568" type="line"/>
		</contour>
	</outline>
</glyph>
<glyph name="to48" format="2">
	<advance width="100"/>
	<outline>
		<contour>
			<point x="-98.949" y="10.198" type="line"/>
			<point x="1.051" y="490.198" type="line"/>
			<point x="98.949" y="469.802" type="line"/>
			<point x="-1.051" y="-10.198" type="line"/>
		</contour>
	</outline>
</glyph>
<glyph name="to49" format="2">
	<advance width="200"/>
	<outline>
		<contour>
			<point x="-287.021" y="76.335" type="line"/>
			<point x="-87.021" y="566.335" type="line"/>
			<point x="287.021" y="413.665" type="line"/>
			<point x="87.021" y="-76.335" type="line"/>
		</contour>
	</outline>
</glyph>
<glyph name="to5" format="2">
	<advance width="100"/>
	<outline>
		<contour>
			<point x="-72.361" y="44.721" type="line"/>
			<point x="27.639" y="94.721" type="line"/>
			<point x="72.361" y="5.279" type="line"/>
			<point x="-27.639" y="-44.721" type="line"/>
		</contour>
	</outline>
</glyph>
<glyph name="to50" format="2">
	<advance width="100"/>
	<outline>
		<contour>
			<point x="-118.641" y="13.728" type="line"/>
			<point x="-18.641" y="513.728" type="line"/>
			<point x="118.641" y="486.272" type="line"/>
			<point x="18.641" y="-13.728" type="line"/>
		</contour>
	</outline>
</glyph>
<glyph name="to51" format="2">
	<advance width="200"/>
	<outline>
		<contour>
			<point x="-286.195" y="73.018" type="line"/>
			<point x="-86.195" y="583.018" type="line"/>
			<point x="286.195" y="436.982" type="line"/>
			<point x="86.195" y="-73.018" type="line"/>
		</contour>
	</outline>
</glyph>
<glyph name="to52" format="2">
	<advance width="200"/>
	<outline>
		<contour>
			<point x="-286.669" y="71.796" type="line"/>
			<point x="-86.669" y="591.796" type="line"/>
			<point x="286.669" y="448.204" type="line"/>
			<point x="86.669" y="-71.796" type="line"/>
		</contour>
	</outline>
</glyph>
<glyph name="to53" format="2">
	<advance width="100"/>
	<outline>
		<contour>
			<point x="-99.133" y="9.27" type="line"/>
			<point x="0.867" y="539.27" type="line"/>
			<point x="99.133" y="520.73" type="line"/>
			<point x="-0.867" y="-9.27" type="line"/>
		</contour>
	</outline>
</glyph>
<glyph name="to54" format="2">
	<advance width="200"/>
	<outline>
		<contour>
			<point x="-289.425" y="70.157" type="line"/>
			<point x="-89.425" y="610.157" type="line"/>
			<point x="289.425" y="469.843" type="line"/>
			<point x="89.425" y="-70.157" type="line"/>
		</contour>
	</outline>
</glyph>
<glyph name="to55" format="2">
	<advance width="200"/>
	<outline>
		<contour>
			<point x="-289.838" y="69.032" type="line"/>
			<point x="-89.838" y="619.032" type="line"/>
			<point x="289.838" y="480.968" type="line"/>
			<point x="89.838" y="-69.032" type="line"/>
		</contour>
	</outline>
</glyph>
<glyph name="to56" format="2">
	<advance width="100"/>
	<outline>
		<contour>
			<point x="-99.221" y="8.79" type="line"/>
			<point x="0.779" y="568.79" type="line"/>
			<point x="99.221" y="551.21" type="line"/>
			<point x="-0.779" y="-8.79" type="line"/>
		</contour>
	</outline>
</glyph>
<glyph name="to57" format="2">
	<advance width="500"/>
	<outline>
		<contour>
			<point x="-400" y="132" type="line"/>
			<point x="100" y="702" type="line"/>
			<point x="400" y="438" type="line"/>
			<point x="-100" y="-132" type="line"/>
		</contour>
	</outline>
</glyph>
<glyph name="to58" format="2">
	<advance width="200"/>
	<outline>
		<contour>
			<point x="-194.537" y="32.599" type="line"/>
			<point x="5.463" y="612.599" type="line"/>
			<point x="194.537" y="547.401" type="line"/>
			<point x="-5.463" y="-32.599" type="line"/>
		</contour>
	</outline>
</glyph>
<glyph name="to59" format="2">
	<advance width="100"/>
	<outline>
		<contour>
			<point x="-119.016" y="11.698" type="line"/>
			<point x="-19.016" y="601.698" type="line"/>
			<point x="119.016" y="578.302" type="line"/>
			<point x="19.016" y="-11.698" type="line"/>
		</contour>
	</outline>
</glyph>
<glyph name="to6" format="2">
	<advance width="500"/>
	<outline>
		<contour>
			<point x="-274" y="199" type="line"/>
			<point x="226" y="259" type="line"/>
			<point x="274" y="-139" type="line"/>
			<point x="-226" y="-199" type="line"/>
		</contour>
	</outline>
</glyph>
<glyph name="to60" format="2">
	<advance width="500"/>
	<outline>
		<contour>
			<point x="-404" y="128" type="line"/>
			<point x="96" y="728" type="line"/>
			<point x="404" y="472" type="line"/>
			<point x="-96" y="-128" type="line"/>
		</contour>
	</outline>
</glyph>
<glyph name="to61" format="2">
	<advance width="100"/>
	<outline>
		<contour>
			<point x="-119.078" y="11.324" type="line"/>
			<point x="-19.078" y="621.324" type="line"/>
			<point x="119.078" y="598.676" type="line"/>
			<point x="19.078" y="-11.324" type="line"/>
		</contour>
	</outline>
</glyph>
<glyph name="to62" format="2">
	<advance width="100"/>
	<outline>
		<contour>
			<point x="-119.107" y="11.146" type="line"/>
			<point x="-19.107" y="631.146" type="line"/>
			<point x="119.107" y="608.854" type="line"/>
			<point x="19.107" y="-11.146" type="line"/>
		</contour>
	</outline>
</glyph>
<glyph name="to63" format="2">
	<advance width="100"/>
	<outline>
		<contour>
			<point x="-119.134" y="10.974" type="line"/>
			<point x="-19.134" y="640.974" type="line"/>
			<point x="119.134" y="619.026" type="line"/>
			<point x="19.134" y="-10.974" type="line"/>
		</contour>
	</outline>
</glyph>
<glyph name="to64" format="2">
	<advance width="100"/>
	<outline>
		<contour>
			<point x="-99.401" y="7.719" type="line"/>
			<point x="0.599" y="647.719" type="line"/>
			<point x="99.401" y="632.281" type="line"/>
			<point x="-0.599" y="-7.719" type="line"/>
		</contour>
	</outline>
</glyph>
<glyph name="to65" format="2">
	<advance width="100"/>
	<outline>
		<contour>
			<point x="-119.186" y="10.644" type="line"/>
			<point x="-19.186" y="660.644" type="line"/>
			<point x="119.186" y="639.356" type="line"/>
			<point x="19.186" y="-10.644" type="line"/>
		</contour>
	</outline>
</glyph>
<glyph name="to66" format="2">
	<advance width="100"/>
	<outline>
		<contour>
			<point x="-99.436" y="7.49" type="line"/>
			<point x="0.564" y="667.49" type="line"/>
			<point x="99.436" y="652.51" type="line"/>
			<point x="-0.564" y="-7.49" type="line"/>
		</contour>
	</outline>
</glyph>
<glyph name="to67" format="2">
	<advance width="100"/>
	<outline>
		<contour>
			<point x="-99.452" y="7.381" type="line"/>
			<point x="0.548" y="677.381" type="line"/>
			<point x="99.452" y="662.619" type="line"/>
			<point x="-0.548" y="-7.381" type="line"/>
		</contour>
	</outline>
</glyph>
<glyph name="to68" format="2">
	<advance width="200"/>
	<outline>
		<contour>
			<point x="-291.873" y="56.433" type="line"/>
			<point x="-91.873" y="736.433" type="line"/>
			<point x="291.873" y="623.567" type="line"/>
			<point x="91.873" y="-56.433" type="line"/>
		</contour>
	</outline>
</glyph>
<glyph name="to69" format="2">
	<advance width="500"/>
	<outline>
		<contour>
			<point x="-412" y="117" type="line"/>
			<point x="88" y="807" type="line"/>
			<point x="412" y="573" type="line"/>
			<point x="-88" y="-117" type="line"/>
		</contour>
	</outline>
</glyph>
<glyph name="to7" format="2">
	<advance width="200"/>
	<outline>
		<contour>
			<point x="-166.731" y="190.659" type="line"/>
			<point x="33.269" y="260.659" type="line"/>
			<point x="166.731" y="-120.659" type="line"/>
			<point x="-33.269" y="-190.659" type="line"/>
		</contour>
	</outline>
</glyph>
<glyph name="to70" format="2">
	<advance width="100"/>
	<outline>
		<contour>
			<point x="-119.296" y="9.899" type="line"/>
			<point x="-19.296" y="709.899" type="line"/>
			<point x="119.296" y="690.101" type="line"/>
			<point x="19.296" y="-9.899" type="line"/>
		</contour>
	</outline>
</glyph>
<glyph name="to71" format="2">
	<advance width="200"/>
	<outline>
		<contour>
			<point x="-196.254" y="27.114" type="line"/>
			<point x="3.746" y="737.114" type="line"/>
			<point x="196.254" y="682.886" type="line"/>
			<point x="-3.746" y="-27.114" type="line"/>
		</contour>
	</outline>
</glyph>
<glyph name="to72" format="2">
	<advance width="100"/>
	<outline>
		<contour>
			<point x="-119.334" y="9.63" type="line"/>
			<point x="-19.334" y="729.63" type="line"/>
			<point x="119.334" y="710.37" type="line"/>
			<point x="19.334" y="-9.63" type="line"/>
		</contour>
	</outline>
</glyph>
<glyph name="to73" format="2">
	<advance width="500"/>
	<outline>
		<contour>
			<point x="-415" y="113" type="line"/>
			<point x="85" y="843" type="line"/>
			<point x="415" y="617" type="line"/>
			<point x="-85" y="-113" type="line"/>
		</contour>
	</outline>
</glyph>
<glyph name="to74" format="2">
	<advance width="200"/>
	<outline>
		<contour>
			<point x="-293.073" y="52.182" type="line"/>
			<point x="-93.073" y="792.182" type="line"/>
			<point x="293.073" y="687.818" type="line"/>
			<point x="93.073" y="-52.182" type="line"/>
		</contour>
	</outline>
</glyph>
<glyph name="to75" format="2">
	<advance width="100"/>
	<outline>
		<contour>
			<point x="-99.561" y="6.608" type="line"/>
			<point x="0.439" y="756.608" type="line"/>
			<point x="99.561" y="743.392" type="line"/>
			<point x="-0.439" y="-6.608" type="line"/>
		</contour>
	</outline>
</glyph>
<glyph name="to76" format="2">
	<advance width="500"/>
	<outline>
		<contour>
			<point x="-417" y="110" type="line"/>
			<point x="83" y="870" type="line"/>
			<point x="417" y="650" type="line"/>
			<point x="-83" y="-110" type="line"/>
		</contour>
	</outline>
</glyph>
<glyph name="to77" format="2">
	<advance width="200"/>
	<outline>
		<contour>
			<point x="-293.577" y="50.28" type="line"/>
			<point x="-93.577" y="820.28" type="line"/>
			<point x="293.577" y="719.72" type="line"/>
			<point x="93.577" y="-50.28" type="line"/>
		</contour>
	</outline>
</glyph>
<glyph name="to78" format="2">
	<advance width="500"/>
	<outline>
		<contour>
			<point x="-418" y="108" type="line"/>
			<point x="82" y="888" type="line"/>
			<point x="418" y="672" type="line"/>
			<point x="-82" y="-108" type="line"/>
		</contour>
	</outline>
</glyph>
<glyph name="to79" format="2">
	<advance width="100"/>
	<outline>
		<contour>
			<point x="-119.446" y="8.791" type="line"/>
			<point x="-19.446" y="798.791" type="line"/>
			<point x="119.446" y="781.209" type="line"/>
			<point x="19.446" y="-8.791" type="line"/>
		</contour>
	</outline>
</glyph>
<glyph name="to8" format="2">
	<advance width="100"/>
	<outline>
		<contour>
			<point x="-93.729" y="54.661" type="line"/>
			<point x="6.271" y="134.661" type="line"/>
			<point x="93.729" y="25.339" type="line"/>
			<point x="-6.271" y="-54.661" type="line"/>
		</contour>
	</outline>
</glyph>
<glyph name="to80" format="2">
	<advance width="200"/>
	<outline>
		<contour>
			<point x="-294.029" y="48.507" type="line"/>
			<point x="-94.029" y="848.507" type="line"/>
			<point x="294.029" y="751.493" type="line"/>
			<point x="94.029" y="-48.507" type="line"/>
		</contour>
	</outline>
</glyph>
<glyph name="to81" format="2">
	<advance width="200"/>
	<outline>
		<contour>
			<point x="-294.169" y="47.943" type="line"/>
			<point x="-94.169" y="857.943" type="line"/>
			<point x="294.169" y="762.057" type="line"/>
			<point x="94.169" y="-47.943" type="line"/>
		</contour>
	</outline>
</glyph>
<glyph name="to82" format="2">
	<advance width="500"/>
	<outline>
		<contour>
			<point x="-421" y="104" type="line"/>
			<point x="79" y="924" type="line"/>
			<point x="421" y="716" type="line"/>
			<point x="-79" y="-104" type="line"/>
		</contour>
	</outline>
</glyph>
<glyph name="to83" format="2">
	<advance width="100"/>
	<outline>
		<contour>
			<point x="-119.497" y="8.373" type="line"/>
			<point x="-19.497" y="838.373" type="line"/>
			<point x="119.497" y="821.627" type="line"/>
			<point x="19.497" y="-8.373" type="line"/>
		</contour>
	</outline>
</glyph>
<glyph name="to84" format="2">
	<advance width="100"/>
	<outline>
		<contour>
			<point x="-99.649" y="5.911" type="line"/>
			<point x="0.351" y="845.911" type="line"/>
			<point x="99.649" y="834.089" type="line"/>
			<point x="-0.351" y="-5.911" type="line"/>
		</contour>
	</outline>
</glyph>
<glyph name="to85" format="2">
	<advance width="200"/>
	<outline>
		<contour>
			<point x="-294.683" y="45.808" type="line"/>
			<point x="-94.683" y="895.808" type="line"/>
			<point x="294.683" y="804.192" type="line"/>
			<point x="94.683" y="-45.808" type="line"/>
		</contour>
	</outline>
</glyph>
<glyph name="to86" format="2">
	<advance width="200"/>
	<outline>
		<contour>
			<point x="-296.75" y="45.756" type="line"/>
			<point x="-96.75" y="905.756" type="line"/>
			<point x="296.75" y="814.244" type="line"/>
			<point x="96.75" y="-45.756" type="line"/>
		</contour>
	</outline>
</glyph>
<glyph name="to87" format="2">
	<advance width="200"/>
	<outline>
		<contour>
			<point x="-294.916" y="44.808" type="line"/>
			<point x="-94.916" y="914.808" type="line"/>
			<point x="294.916" y="825.192" type="line"/>
			<point x="94.916" y="-44.808" type="line"/>
		</contour>
	</outline>
</glyph>
<glyph name="to88" format="2">
	<advance width="500"/>
	<outline>
		<contour>
			<point x="-424" y="99" type="line"/>
			<point x="76" y="979" type="line"/>
			<point x="424" y="781" type="line"/>
			<point x="-76" y="-99" type="line"/>
		</contour>
	</outline>
</glyph>
<glyph name="to89" format="2">
	<advance width="500"/>
	<outline>
		<contour>
			<point x="-424" y="98" type="line"/>
			<point x="76" y="988" type="line"/>
			<point x="424" y="792" type="line"/>
			<point x="-76" y="-98" type="line"/>
		</contour>
	</outline>
</glyph>
<glyph name="to9" format="2">
	<advance width="500"/>
	<outline>
		<contour>
			<point x="-285" y="197" type="line"/>
			<point x="215" y="287" type="line"/>
			<point x="285" y="-107" type="line"/>
			<point x="-215" y="-197" type="line"/>
		</contour>
	</outline>
</glyph>
<glyph name="to90" format="2">
	<advance width="200"/>
	<outline>
		<contour>
			<point x="-295.237" y="43.386" type="line"/>
			<point x="-95.237" y="943.386" type="line"/>
			<point x="295.237" y="856.614" type="line"/>
			<point x="95.237" y="-43.386" type="line"/>
		</contour>
	</outline>
</glyph>
<glyph name="to91" format="2">
	<advance width="200"/>
	<outline>
		<contour>
			<point x="-297.291" y="43.361" type="line"/>
			<point x="-97.291" y="953.361" type="line"/>
			<point x="297.291" y="866.639" type="line"/>
			<point x="97.291" y="-43.361" type="line"/>
		</contour>
	</outline>
</glyph>
<glyph name="to92" format="2">
	<advance width="100"/>
	<outline>
		<contour>
			<point x="-99.707" y="5.403" type="line"/>
			<point x="0.293" y="925.403" type="line"/>
			<point x="99.707" y="914.597" type="line"/>
			<point x="-0.293" y="-5.403" type="line"/>
		</contour>
	</outline>
</glyph>
<glyph name="to93" format="2">
	<advance width="200"/>
	<outline>
		<contour>
			<point x="-295.53" y="42.049" type="line"/>
			<point x="-95.53" y="972.049" type="line"/>
			<point x="295.53" y="887.951" type="line"/>
			<point x="95.53" y="-42.049" type="line"/>
		</contour>
	</outline>
</glyph>
<glyph name="to94" format="2">
	<advance width="500"/>
	<outline>
		<contour>
			<point x="-427" y="94" type="line"/>
			<point x="73" y="1034" type="line"/>
			<point x="427" y="846" type="line"/>
			<point x="-73" y="-94" type="line"/>
		</contour>
	</outline>
</glyph>
<glyph name="to95" format="2">
	<advance width="500"/>
	<outline>
		<contour>
			<point x="-427" y="93" type="line"/>
			<point x="73" y="1043" type="line"/>
			<point x="427" y="857" type="line"/>
			<point x="-73" y="-93" type="line"/>
		</contour>
	</outline>
</glyph>
<glyph name="to96" format="2">
	<advance width="100"/>
	<outline>
		<contour>
			<point x="-99.731" y="5.18" type="line"/>
			<point x="0.269" y="965.18" type="line"/>
			<point x="99.731" y="954.82" type="line"/>
			<point x="-0.269" y="-5.18" type="line"/>
		</contour>
	</outline>
</glyph>
<glyph name="to98" format="2">
	<advance width="500"/>
	<outline>
		<contour>
			<point x="-428" y="91" type="line"/>
			<point x="72" y="1071" type="line"/>
			<point x="428" y="889" type="line"/>
			<point x="-72" y="-91" type="line"/>
		</contour>
	</outline>
</glyph>
<glyph name="to99" format="2">
	<advance width="100"/>
	<outline>
		<contour>
			<point x="-99.747" y="5.025" type="line"/>
			<point x="0.253" y="995.025" type="line"/>
			<point x="99.747" y="984.975" type="line"/>
			<point x="-0.253" y="-5.025" type="line"/>
		</contour>
	</outline>
</glyph>
